<?xml version="1.0" encoding="UTF-8" standalone="no"?>
<!-- Created with Inkscape (http://www.inkscape.org/) -->

<svg
   xmlns:dc="http://purl.org/dc/elements/1.1/"
   xmlns:cc="http://creativecommons.org/ns#"
   xmlns:rdf="http://www.w3.org/1999/02/22-rdf-syntax-ns#"
   xmlns:svg="http://www.w3.org/2000/svg"
   xmlns="http://www.w3.org/2000/svg"
   xmlns:xlink="http://www.w3.org/1999/xlink"
   xmlns:sodipodi="http://sodipodi.sourceforge.net/DTD/sodipodi-0.dtd"
   xmlns:inkscape="http://www.inkscape.org/namespaces/inkscape"
   version="1.1"
   id="svg815"
   width="344"
   height="1280"
   viewBox="0 0 344 1280"
   sodipodi:docname="MADLION.svg"
   inkscape:version="0.92.4 (5da689c313, 2019-01-14)">
  <metadata
     id="metadata821">
    <rdf:RDF>
      <cc:Work
         rdf:about="">
        <dc:format>image/svg+xml</dc:format>
        <dc:type
           rdf:resource="http://purl.org/dc/dcmitype/StillImage" />
        <dc:title></dc:title>
      </cc:Work>
    </rdf:RDF>
  </metadata>
  <defs
     id="defs819">
    <linearGradient
       id="linearGradient4590"
       inkscape:collect="always">
      <stop
         id="stop4586"
         offset="0"
         style="stop-color:#1e7ad1;stop-opacity:1" />
      <stop
         id="stop4588"
         offset="1"
         style="stop-color:#6ec5e8;stop-opacity:1" />
    </linearGradient>
    <linearGradient
       inkscape:collect="always"
       id="linearGradient877">
      <stop
         style="stop-color:#0050c7;stop-opacity:1"
         offset="0"
         id="stop873" />
      <stop
         style="stop-color:#93dcf0;stop-opacity:1"
         offset="1"
         id="stop875" />
    </linearGradient>
    <linearGradient
       inkscape:collect="always"
       xlink:href="#linearGradient877"
       id="linearGradient879"
       x1="37.265823"
       y1="1139.0444"
       x2="344"
       y2="-0.0064697266"
       gradientUnits="userSpaceOnUse" />
    <linearGradient
       inkscape:collect="always"
       xlink:href="#linearGradient4590"
       id="linearGradient4584"
       x1="51.848103"
       y1="891.13922"
       x2="220.35443"
       y2="267.34177"
       gradientUnits="userSpaceOnUse" />
  </defs>
  <sodipodi:namedview
     pagecolor="#ffffff"
     bordercolor="#666666"
     borderopacity="1"
     objecttolerance="10"
     gridtolerance="10"
     guidetolerance="10"
     inkscape:pageopacity="0"
     inkscape:pageshadow="2"
     inkscape:window-width="1920"
     inkscape:window-height="1017"
     id="namedview817"
     showgrid="false"
     inkscape:showpageshadow="false"
     inkscape:zoom="0.6171875"
     inkscape:cx="172"
     inkscape:cy="685.25253"
     inkscape:window-x="-8"
     inkscape:window-y="-8"
     inkscape:window-maximized="1"
     inkscape:current-layer="svg815" />
  <rect
     style="opacity:1;fill:url(#linearGradient879);fill-opacity:1;stroke:none;stroke-width:77.92428589;stroke-linecap:square;stroke-linejoin:miter;stroke-miterlimit:4;stroke-dasharray:none;stroke-opacity:1"
     id="rect859"
     width="344"
     height="1280.0129"
     x="0"
     y="-0.0064697266" />
  <path
     style="fill:url(#linearGradient4584);fill-opacity:1;stroke:none;stroke-width:1.30938017"
     d="m -90.478575,247.36397 c -0.34179,0.26415 0.0276,3.14364 0.82117,6.39858 2.38563,9.78577 3.438416,32.1618 1.93917,41.23402 -0.77341,4.68022 -2.54774,11.60565 -3.94395,15.38873 -2.94707,7.98505 -3.04907,7.84893 12.562136,16.94349 l 9.93285,5.78834 -5.78336,5.61086 c -3.18105,3.08652 -8.65462,8.95756 -12.163516,13.04677 -3.50881,4.08929 -6.70589,7.39421 -7.10463,7.34311 -0.39875,-0.0511 -4.06141,-3.53989 -8.140815,-7.75194 -4.07944,-4.21202 -8.04598,-7.89459 -8.81301,-8.18265 -0.76698,-0.28806 -3.36967,0.61991 -5.78427,2.01741 -5.59656,3.23906 -23.96263,7.82366 -35.77801,8.93151 -5.02297,0.47101 -14.94301,0.52397 -22.04526,0.1148 -7.10231,-0.4091 -12.71708,-0.18747 -12.47879,0.49437 0.23835,0.68192 21.46442,12.05031 47.16949,25.26192 l 46.736145,24.01952 12.281366,15.89026 c 9.48381,12.27056 12.58619,15.65789 13.61641,14.8616 0.7338,-0.56711 4.21894,-5.45221 7.74587,-10.85436 13.02884,-19.95583 36.76035,-44.99275 58.76149952,-61.99715 C 20.977431,344.97723 50.000271,328.9601 73.757511,320.69738 c 6.38336,-2.22012 12.120001,-4.43187 12.748191,-4.91745 0.78439,-0.6062 -2.845651,-6.04461 -11.586971,-17.35455 l -12.72863,-16.46894 -1.94469,-9.83875 c -7.00959,-35.49531 -20.25074,-92.45213 -21.53151,-92.61619 -0.64898,-0.0832 -1.84464,4.05966 -2.65596,9.20561 -3.0397,19.27929 -15.04819,47.73397 -23.94625,56.73805 -1.96106,1.98434 -3.4956905,4.27415 -3.4102805,5.089 0.0854,0.81483 2.6491505,5.58161 5.6969005,10.59107 3.04775,5.00938 5.49918,9.4303 5.44894,9.82272 -0.0502,0.3924 -4.29144,2.82408 -9.42693,5.40483 -5.1355405,2.58075 -12.0206405,6.27952 -15.2989503,8.22049 -3.27834,1.94096 -6.1944097,3.2225 -6.4792597,2.84541 -0.28518,-0.37682 -2.22642,-6.26137 -4.31391,-13.07564 -2.08752,-6.81428 -4.08315,-12.76451 -4.43574,-13.22071 -0.35257,-0.45624 -5.15311,-0.49766 -10.66777,-0.0941 -16.22575,1.18755 -33.37281,-2.47539 -52.71209,-11.2557 -3.50317,-1.59047 -6.649416,-2.67296 -6.991206,-2.40881 z m -30.056215,187.06324 c -1.40631,1.08689 -10.60833,21.37327 -15.5307,34.2377 -26.30677,68.75183 -28.53791,147.34985 -6.17491,217.53132 12.4992,39.22595 27.70354,67.98687 53.722205,101.62589 26.800126,34.64919 51.010336,56.50827 88.38646552,79.79897 38.38953048,23.92216 87.96034148,40.90958 134.05744948,45.94198 45.13157,4.9271 83.0111,1.817 130.14679,-10.68571 5.51259,-1.46189 4.74455,-2.77694 -2.98885,-5.11744 -16.36711,-4.95323 -40.92203,-19.39258 -53.20697,-31.28765 -8.19959,-7.93939 -22.66406,-26.57661 -28.86483,-37.19206 -9.66188,-16.54047 -16.36692,-41.94372 -17.23151,-65.28553 -0.38414,-10.37179 -2.35541,-18.85186 -4.5739,-19.68496 -0.6345,-0.23825 -5.03998,0.96664 -9.79028,2.6765 -12.67971,4.56401 -26.33264,7.52789 -31.92491,6.93289 l -4.90853,-0.52124 1.62185,6.26785 c 2.98737,11.55336 9.4567,25.69437 16.44053,35.93771 3.80951,5.58753 6.5808,10.42829 6.15709,10.75575 -1.52338,1.17741 -17.66519,-12.39915 -28.41446,-23.90029 -12.768858,-13.6621 -26.790079,-34.74479 -31.730899,-47.70853 -1.64496,-4.31604 -5.47822,-14.48873 -8.51663,-22.6075 -3.03846,-8.11874 -8.25643,-21.21383 -11.59552,-29.1002 -6.04659,-14.28097 -6.08445,-14.33858 -9.25671,-14.12632 -1.75184,0.11727 -9.51506,0.32302 -17.25243,0.4571 -7.73738,0.1342 -14.52145,0.42955 -15.07397,0.65787 -1.95328,0.80709 -0.91892,16.46638 2.26218,34.25815 5.32773,29.79778 16.60983,57.79607 34.21642,84.9196 3.25422,5.01312 5.67098,9.08544 5.36971,9.04687 -0.30129,-0.0388 -5.14934,-4.31345 -10.7739,-9.49853 C 30.117201,775.92602 6.6424205,745.61606 -2.1408795,729.13291 -9.4872193,715.34626 -17.871899,693.70577 -21.456789,679.2792 l -2.508,-10.095 -9.70687,-4.73476 c -8.99825,-4.38879 -10.22432,-5.40715 -16.78494,-13.95129 -7.45252,-9.70568 -6.823,-8.1256 -17.17867,-43.14061 -1.92416,-6.50608 -3.12539,-8.7561 -5.15716,-9.66688 -1.45656,-0.65288 -2.96628,-0.91178 -3.35733,-0.5759 -0.39106,0.33582 -0.88686,7.12781 -1.10056,15.09483 -1.32824,49.52562 8.34565,92.61546 30.50705,135.87827 5.20007,10.15141 13.12342,23.33928 19.35031,32.20845 l 10.54438,15.01869 -11.44567,-11.83976 c -14.60637,-15.10737 -33.00978,-39.19489 -43.44564,-56.86448 -41.283861,-69.90027 -48.757071,-160.88469 -19.648276,-239.21637 l 4.16468,-11.2056 -16.331905,-21.131 c -8.98254,-11.62207 -16.62384,-20.90539 -16.97941,-20.63056 z M 99.281942,264.5335 c -0.31455,0.24316 6.783498,9.95612 15.772268,21.58623 l 16.34285,21.14515 14.25452,-1.36258 c 50.13724,-4.79528 104.00484,4.92251 149.57059,26.98343 46.69434,22.60744 85.57715,57.32544 114.93052,102.61738 12.22764,18.86719 12.295,20.41037 0.27487,6.40704 -35.4006,-41.24148 -77.13313,-68.83474 -128.66712,-85.07388 -10.98435,-3.46132 -35.17408,-9.08243 -36.15548,-8.40186 -0.42361,0.29374 -0.55734,1.79928 -0.29733,3.34565 0.46463,2.76347 4.07938,5.3037 28.69577,20.15339 16.34741,9.86151 22.80016,18.43673 26.06933,34.6498 2.2811,11.31266 1.75015,10.69164 15.20479,17.76156 11.32881,5.9528 33.94833,23.34079 44.91439,34.52613 17.27562,17.621 38.84629,47.75662 45.57147,63.66718 1.68945,3.99729 1.33127,3.78728 -4.91884,-2.88892 -23.93247,-25.56374 -42.33579,-39.7087 -68.51264,-52.65918 -13.33364,-6.59657 -31.48846,-13.74694 -37.55552,-14.79259 -1.01135,-0.17426 -9.42264,26.40206 -11.02615,34.83845 -0.16801,0.88393 13.00511,10.7782 37.51266,28.17791 30.00719,21.30436 32.36085,23.41727 46.9207,42.09024 7.08527,9.08685 14.34045,19.118 16.12313,22.29113 3.85183,6.85601 11.5984,25.2611 10.5763,25.13015 -0.39344,-0.0505 -4.33941,-3.895 -8.76862,-8.5434 -8.04521,-8.44327 -30.29284,-25.77024 -34.29333,-26.70987 -1.67375,-0.39317 -2.26133,0.47702 -2.81397,4.16269 -0.80412,5.3634 -7.21422,17.95345 -14.72628,28.92606 -2.85202,4.16588 -5.12853,8.1254 -5.05789,8.79947 0.23991,2.28852 7.82309,6.38633 15.81454,8.54721 19.52482,5.2795 43.57794,18.50546 60.26984,33.13687 4.05278,3.55258 10.57994,11.45375 18.77103,22.72693 11.65918,16.0463 12.92857,18.29791 17.75489,31.46991 5.40075,14.73933 8.2805,27.13958 9.5336,41.06921 0.40334,4.48441 1.0655,8.58451 1.47258,9.11104 0.82509,1.06751 7.34274,-10.04707 15.70622,-26.78421 30.8105,-61.65794 41.06712,-137.231 28.00788,-206.35349 -11.9536,-63.27002 -44.5506,-125.02379 -90.20083,-170.87934 -65.96962,-66.26627 -153.69756,-100.44259 -248.85432,-96.94435 -17.81831,0.65507 -55.35404,5.86123 -58.216418,8.07346 z M -22.557649,423.70443 c -1.66415,1.29353 -3.79338,4.237 -8.61252,10.91652 -4.73922,6.56872 -12.94415,17.90735 -18.23215,25.19719 -14.34386,19.77389 -24.47573,34.39909 -25.14976,36.30349 -0.59015,1.66756 0.74244,8.07484 6.07834,29.2175 9.47006,37.52376 9.60479,37.83685 16.85131,38.76513 5.2741,0.67565 4.1356,1.46863 27.59446,-19.21029 18.1362597,-15.98711 18.3869597,-16.16519 26.7933095,-18.86267 4.6673,-1.49765 13.1841205,-3.4701 18.9260205,-4.38486 12.02032,-1.91502 14.02831,-3.08661 14.92719,-8.70564 l 0.65191,-4.07863 4.73748,2.69611 c 8.94569,5.08675 20.03226,16.06251 30.02015,29.7249 5.24453,7.17392 9.43938,13.73346 9.32463,14.57805 -0.11408,0.84466 -7.76117,0.38953 -16.99132,-1.01168 -16.49091,-2.50343 -16.99892,-2.47389 -29.37636,1.61139 -6.92776,2.28658 -16.03247,5.63796 -20.23356,7.44792 -7.7804105,3.35202 -15.60071048,4.5611 -32.53866,5.03483 -11.05744,0.30922 -15.97359,3.11104 -16.46072,9.37697 -0.16946,2.17886 0.16008,5.08914 0.73209,6.46743 0.57197,1.37828 3.46421,10.55409 6.42871,20.39105 2.96446,9.83703 6.54415,19.378 7.95454,21.20278 4.43316,5.73584 2.58071,5.59127 56.36394,4.40915 32.87795,-0.72264 34.2949,-0.68408 36.97033,0.98766 2.80107,1.75025 7.23134,11.888 26.972249,61.72944 6.76406,17.07774 8.40169,19.54619 13.90382,20.92937 3.92019,0.98554 8.90374,-0.12228 31.81765,-7.06333 5.90012,-1.78725 11.25235,-3.61157 11.89368,-4.05328 1.05868,-0.72925 16.27451,-29.57993 30.57512,-57.97637 3.09978,-6.15519 5.34076,-12.17168 4.98145,-13.3689 -0.35931,-1.19723 -3.51143,-6.99218 -7.00475,-12.87707 l -6.35223,-10.69867 -5.47435,-0.84352 c -3.0106,-0.46432 -13.25329,-1.27716 -22.76369,-1.8058 -9.51038,-0.52858 -17.70534,-1.01463 -18.21128,-1.08045 -0.50598,-0.0657 -6.17028,-0.40897 -12.58599,-0.76089 -12.77015,-0.70044 -16.41656,-2.96725 -14.33481,-8.91187 0.97446,-2.78294 3.20789,-4.62195 13.90421,-11.45105 12.62606,-8.06116 63.93742,-48.6306 69.48924,-54.94207 3.14452,-3.57474 9.32226,-3.67513 12.01202,-0.19504 0.96775,1.25217 -0.23207,10.4561 -3.28225,25.19443 -2.6433,12.77251 -5.55642,28.3496 -6.47422,34.61388 l -1.66881,11.3904 8.80065,9.09078 c 4.84033,5.00137 9.7283,9.6601 10.86344,10.35043 1.96755,1.19658 9.97993,-0.35429 56.79362,-10.98491 l 20.54607,-4.66411 10.32736,-16.37592 c 5.67941,-9.00697 10.81962,-18.15476 11.42415,-20.32646 1.95503,-7.02366 -0.69934,-10.95512 -13.90622,-20.59785 -6.49651,-4.74339 -18.19282,-13.37119 -25.99344,-19.17457 -7.80061,-5.80341 -17.4813,-12.97936 -21.51175,-15.94784 -8.78993,-6.47378 -9.72412,-8.97201 -6.86136,-18.33717 7.99908,-26.16807 20.58896,-73.47728 20.18817,-75.86087 -0.8147,-4.84504 -4.49273,-8.38945 -16.30984,-15.72445 -6.20463,-3.85127 -14.40934,-9.05274 -18.2327,-11.55885 -13.70683,-8.98443 -19.66698,-6.92901 -24.09687,8.31676 -4.58688,15.78609 -7.81021,23.54382 -11.78415,28.34584 -2.1179,2.55914 -7.70521,10.59897 -12.41432,17.86604 l -8.56187,13.21101 -1.57544,16.21175 c -0.86714,8.91631 -1.93625,16.49065 -2.37668,16.83104 -1.49008,1.15168 -6.11365,-3.54563 -15.5155,-15.76305 -9.34393,-12.14235 -17.70454,-27.62752 -18.96658,-35.13284 l -0.57479,-3.41175 3.98886,0.38519 c 5.53179,0.53381 7.19738,-1.161 12.05917,-12.26166 2.33257,-5.32592 6.38815,-13.07049 9.01396,-17.20959 4.72934,-7.455 4.9649,-7.65269 25.00731,-21.17345 25.92448,-17.48881 24.87014,-16.58694 25.54573,-21.86104 0.7708,-6.01698 -1.25236,-8.27474 -13.65811,-15.23345 -5.77459,-3.23912 -13.8283,-7.78229 -17.89844,-10.09763 -4.07016,-2.31531 -8.12396,-4.39509 -9.00853,-4.62161 -0.88458,-0.22648 -4.89325,-2.50164 -8.90736,-5.05526 -4.08627,-2.59954 -8.73554,-4.49551 -10.56361,-4.30853 -3.123,0.31945 -7.77094,2.01229 -40.83618,14.88693 -46.080569,17.94234 -43.006909,16.53593 -44.302339,20.28413 -0.71757,2.07614 0.89862,14.37002 4.05616,30.87092 5.96987,31.19818 8.75738,53.12028 7.86348,61.83391 l -0.61263,5.97792 -7.67225,-1.36203 c -8.88318,-1.57837 -29.16495,-9.87348 -59.1843505,-24.20493 -11.6312498,-5.55281 -22.9828595,-10.10639 -25.2264495,-10.11933 -1.77445,-0.0102 -2.78828,-0.003 -4.08284,1.00294 z M 262.92561,619.62554 c -0.63878,0.49368 0.40631,4.71264 2.32314,9.3749 1.91681,4.66225 4.29885,10.46434 5.29242,12.8947 l 1.80581,4.41902 -17.3325,3.61549 c -16.57353,3.45845 -17.70059,3.89432 -25.77228,9.96713 -8.31744,6.25777 -8.56093,6.59368 -16.60536,22.94437 -6.57164,13.35728 -8.43054,16.2465 -9.52495,14.80873 -2.69995,-3.54714 -20.98257,-15.66061 -21.80095,-14.44436 -0.45916,0.68231 0.63863,3.76661 2.43844,6.85193 1.79991,3.08535 6.08432,11.76018 9.52116,19.2777 7.35499,16.08785 8.04858,17.10241 12.21818,17.84929 1.74844,0.31315 3.89244,0.0201 4.76363,-0.6533 0.8712,-0.67334 6.37709,-10.98605 12.23526,-22.91531 10.19567,-20.76194 10.96517,-21.9394 17.98977,-27.51808 7.1626,-5.6883 7.93699,-5.95736 32.29789,-11.23872 23.06944,-5.00143 25.07275,-5.66671 26.46778,-8.77876 1.85771,-4.14417 0.0935,-6.62781 -11.53856,-16.2381 -4.71791,-3.89788 -11.96304,-10.24271 -16.0986,-14.10034 -4.17561,-3.89494 -8.03533,-6.6149 -8.68029,-6.11644 z m -12.1588,65.82492 c -0.97996,0.72981 -1.946,1.52507 -2.97999,2.41315 -6.65519,5.7153 -7.85787,7.71083 -21.98057,36.49798 -13.70303,27.93184 -14.76924,30.67334 -12.88006,33.10051 1.69185,2.17326 6.60876,2.70111 27.52541,2.96092 31.30419,0.38882 36.90468,-0.008 44.58674,-3.16323 12.43964,-5.10991 24.81762,-17.08765 29.32258,-28.3744 1.11533,-2.79425 4.97005,-17.10404 8.56572,-31.79907 5.19414,-21.22772 6.12492,-27.12013 4.52799,-28.67193 -1.56718,-1.52292 -7.5392,-0.8513 -27.10164,3.05317 -35.2513,7.03564 -42.72638,8.8745 -49.58614,13.98294 z M 373.644,743.52425 c -0.30436,0.28534 -0.32374,0.93174 -0.26931,1.96001 0.0862,1.62814 0.61753,4.19895 1.18054,5.71356 1.07193,2.88491 -0.68478,6.02799 -5.45534,9.75313 -3.82127,2.98382 -1.82456,5.23199 4.42946,4.98664 4.80571,-0.18855 5.10051,0.0139 8.5921,5.92286 l 3.61521,6.12027 3.00542,-6.05612 3.00191,-6.05651 6.00241,-0.82081 6.00121,-0.82064 -4.33914,-5.0371 c -3.71628,-4.31471 -4.2612,-5.76408 -3.79976,-10.10188 0.69596,-6.54081 -0.63309,-8.11472 -4.39784,-5.20504 -4.70408,3.63571 -6.97853,3.84044 -12.69136,1.14353 -3.06948,-1.44908 -4.36839,-1.97891 -4.8757,-1.50336 z M 273.34899,821.7392 c -0.71642,0.55377 -0.79525,2.87541 -0.17407,5.16084 1.32742,4.88572 0.14209,8.10319 -4.23128,11.48328 -4.16746,3.22098 -2.3667,5.53136 4.19902,5.39102 4.83508,-0.10337 5.15391,0.12049 8.63531,6.01224 l 3.61559,6.1166 2.61364,-6.12814 2.61367,-6.12804 6.50005,-0.81505 6.49791,-0.81386 -5.0572,-5.3096 c -4.80055,-5.04238 -4.99138,-5.54285 -3.76272,-9.87836 1.7225,-6.07749 -0.12754,-8.33099 -4.23446,-5.15677 -4.37331,3.38002 -7.78364,3.71456 -12.17701,1.19846 -2.05509,-1.17695 -4.32166,-1.68592 -5.03809,-1.13219 z m 33.6704,-26.0234 c -0.58824,0.45463 -0.59721,3.0097 -0.02,5.67824 1.06685,4.93225 -0.15101,7.63065 -5.24029,11.60378 -3.64644,2.84725 -2.82522,3.76541 4.0042,4.47823 5.24318,0.54719 5.73402,0.90478 9.14605,6.66474 1.98299,3.34755 3.85589,5.6054 4.16133,5.0161 0.30533,-0.58938 1.63937,-3.36384 2.96655,-6.16502 l 2.41533,-5.09244 6.00691,-0.95154 c 3.30464,-0.52268 6.0563,-1.30831 6.11252,-1.74746 0.0563,-0.43915 -1.97096,-2.55331 -4.50302,-4.69708 -4.43142,-3.75288 -4.56916,-4.12389 -3.72721,-9.97046 1.06127,-7.36909 0.45333,-8.40107 -3.27237,-5.5513 -5.12807,3.92293 -8.0459,4.42182 -12.54999,2.14613 -2.437,-1.23131 -4.91172,-1.8666 -5.49998,-1.41192 z m 33.77538,-25.87511 c -0.88385,0.69603 -0.98871,2.40197 -0.262,5.07663 1.18576,4.36427 -0.53495,8.5488 -4.90211,11.9242 -3.34711,2.58693 -1.58221,4.54611 4.69569,5.21404 4.62355,0.4919 5.39145,1.03989 7.98687,5.70857 1.57925,2.84081 3.29193,5.2184 3.80612,5.28418 0.51415,0.0656 1.94251,-2.40762 3.17469,-5.49839 l 2.24041,-5.6199 6.58909,-0.98453 6.59111,-0.98606 -5.08561,-5.11628 c -4.87946,-4.9099 -5.04064,-5.32518 -3.96513,-10.2908 1.41831,-6.54784 0.27688,-8.0453 -3.75898,-4.92633 -4.3733,3.38008 -7.78362,3.71459 -12.17701,1.19847 -2.38704,-1.36703 -4.04929,-1.67981 -4.93313,-0.9838 z m -28.03572,67.05804 0.64328,5.24003 c 0.96061,7.81518 0.63956,9.37772 -2.42542,11.77479 -1.53779,1.20239 -3.13735,3.11987 -3.55224,4.26135 -0.60317,1.65956 0.36967,2.12196 4.85463,2.30828 5.25544,0.21835 5.80346,0.56836 8.69035,5.53979 1.69454,2.91802 3.60536,5.37146 4.24744,5.45383 0.64214,0.0822 2.17959,-2.27662 3.41526,-5.24152 l 2.24729,-5.38938 6.09884,-0.85747 c 3.35484,-0.47184 6.1529,-1.27948 6.21879,-1.794 0.066,-0.51423 -1.98117,-2.71657 -4.55085,-4.89276 -4.56703,-3.86768 -4.64844,-4.09334 -3.50043,-9.99068 1.26827,-6.51443 -0.48202,-7.62788 -5.75193,-3.65747 -3.55499,2.67863 -5.22868,2.64052 -11.3664,-0.26191 z m 67.31567,-51.3099 c -0.51714,0.39971 -0.39821,3.10075 0.26497,6.00106 1.49061,6.51551 1.16004,7.73428 -2.98193,10.96695 -4.72846,3.6908 -3.79827,5.99515 2.43582,6.03302 5.21312,0.0317 5.47788,0.21542 9.03811,6.24066 2.01728,3.41395 3.91902,5.72463 4.22448,5.13535 0.3054,-0.58925 1.61421,-3.31152 2.90991,-6.05007 2.35305,-4.97366 2.36303,-4.98083 8.39971,-5.86821 3.32388,-0.48874 6.0864,-1.23088 6.13998,-1.64913 0.0536,-0.41823 -1.88312,-2.53485 -4.30359,-4.70254 -4.04686,-3.62444 -4.35765,-4.39405 -3.87553,-9.58113 0.57061,-6.13803 -1.22265,-7.88533 -5.05159,-4.92594 -4.1635,3.21786 -6.6833,3.31373 -11.55884,0.44272 -2.58661,-1.52329 -5.1244,-2.44239 -5.64155,-2.04272 z m -32.95551,26.1497 c -0.88396,0.39903 -0.60262,2.84638 0.32146,8.87598 0.57135,3.72824 0.0455,5.05548 -2.91522,7.34387 -5.02162,3.88115 -4.25648,5.97534 2.54384,6.95477 5.38537,0.77551 6.04297,1.2435 9.00241,6.39106 l 3.19209,5.55192 2.44533,-5.76868 2.44539,-5.76877 6.53198,-1.36373 6.53195,-1.36369 -4.91668,-4.82665 c -4.76974,-4.6821 -4.88238,-4.99695 -3.67877,-10.43465 1.03472,-4.67461 0.85137,-5.57842 -1.11004,-5.43838 -1.2939,0.0923 -3.56666,1.09894 -5.05329,2.23137 -3.08225,2.35328 -7.19041,1.94847 -12.37777,-1.21916 -1.48331,-0.9057 -2.43242,-1.40478 -2.9628,-1.16532 z"
     id="path1169"
     inkscape:connector-curvature="0" />
</svg>
