<svg id="Calque_1" data-name="Calque 1" xmlns="http://www.w3.org/2000/svg" viewBox="0 0 550 394"><defs><style>.cls-1{fill:#fff;}</style></defs><title>corsair3</title><path class="cls-1" d="M444.65,670V276h550V670Zm399.5-156.76c3.73-8.6,7.5-15.79,10-23.38,5.75-17.36,3.07-33.66-9-47.53-9.06-10.39-18.4-20.76-28.88-29.65-23.81-20.2-48.38-39.51-72.69-59.11-4.13-3.34-8.47-6.42-12.79-9.51-4.16-3-8.42-5.82-13.83-9.55,26.9,51.55,28.68,102,2.55,152.66,5.53-23.9,7.59-48.11,5-72.63-.26-2.37-1.34-5.54-3.12-6.74-19.69-13.34-39.59-26.35-60.17-39.94,19.41,44.29,18.41,87.77.05,131.15a2.44,2.44,0,0,1-.51-1.87,201.61,201.61,0,0,0,3.93-60c-.31-3.57-1.31-6-4.81-7.71-10.09-5-20-10.47-29.91-15.74-8.2-4.34-16.42-8.66-24.46-12.89,23.7,53.64,14.29,102.08-21.56,146.77.62.12.81.22.93.17,4.43-1.83,8.82-3.75,13.27-5.5,54.09-21.31,108.16-42.71,166.28-50.72,17-2.35,34.18-3.06,51.14.49C827.44,494.52,837.83,499.66,844.15,513.21ZM733.69,283.83l-.87,1c.26.53.54,1,.79,1.59,7.73,16.54,14.9,33.34,16.19,51.81.45,6.52,2.81,10,9.13,11.5,3.66.87,7.13,2.66,10.55,4.3,15.12,7.24,29.17,15.94,38.89,30.12,2.08,3.05,3.66,6.44,5.67,10,3-7,4.29-13.59,2.81-20.82-2-9.63-6.24-18.09-11.53-26.15-10.82-16.5-25.39-29.36-40.86-41.21C754.43,298.31,744,291.2,733.69,283.83Zm186,370c-1.63-2.66-4.84-5.49-4.91-8.39-.43-20.65-.27-41.31-.15-62a5.81,5.81,0,0,1,1.86-4.22c4.69-3.13,17.65.15,20.77,5.19,4.62,7.48,4.82,15.33,1.34,23.32-3,6.93-9.11,7.45-15.47,7.38-.14,0-.27.14-1,.51,7.09,11.57,13.84,23.32,21.35,34.57,5.66,8.48,18.5,13.06,28.69,11.43-1.28-1.15-2.89-2.13-3.88-3.54q-11-15.89-21.82-31.94c-1.49-2.23-2.44-4.43-5.86-4.39-1.69,0-3.4-1.71-6-3.17,12.12-2,16-4.35,19.18-10.9,7.86-16.3-1.71-32.27-19.73-32.63-12.49-.25-25-.11-37.48-.12-1.19,0-2.38.18-3.57.27,5.91,3,6.87,7.6,6.75,13.5-.35,16.65-.28,33.32,0,50,.08,6,.22,11.61-6,15.12Zm-244.53-35a21.41,21.41,0,0,1,2.52-.8q18.09-2.13,19-18.55c.73-14-3.72-22-16.62-23.25-15.18-1.53-30.64-.36-46.4-.36,7.18,2.69,6.56,8.59,6.51,14.5q-.23,24.26,0,48.5c.06,6,.69,12.05-7.67,14.75h27.53c-1.7-2.78-4.86-5.57-4.92-8.42-.43-20.49-.29-41-.1-61.49,0-1.62,1.63-4.56,2.67-4.64,6.34-.48,13.37-2.3,18.4,3.19,6.27,6.85,7,15,4,23.73-2.67,7.69-8.54,9.54-15.83,9-.24,0-.5.28-1.3.77,7.13,11.73,13.83,23.74,21.53,35.08,5.45,8,19.74,12.76,27.06,10.63-4-5-8.44-9.89-12.21-15.28-3.89-5.55-7.2-11.51-10.62-17.38-2.06-3.54-3.55-7.45-8.72-7.49C678.65,621.35,677.39,620.09,675.12,618.86ZM549.41,614.8c.13,24.25,17.13,41.49,40.81,41.39s41.43-18,41.3-41.8-17.89-41.45-41.72-41.34S549.27,590.52,549.41,614.8Zm297.15,39.29c-2.34-4.14-5.13-8.1-6.93-12.47-8.7-21.08-17.26-42.22-25.52-63.47-1.52-3.92-4.08-3-6.73-3.2s-4.48.12-5.67,3.2c-5.82,15.13-11.6,30.29-18.09,45.13-4.53,10.35-6.14,22.17-15.08,30.54h18.08c-1.26-2.66-4.24-5.92-3.64-8.24,4.36-16.76,4.59-16.7,21.61-16.7h2c11,0,11,0,15,9.94,3.46,8.57,3.46,8.57-3.37,15,1.58.1,2.83.24,4.08.24C830.76,654.1,839.16,654.09,846.56,654.09Zm-306-26.93-1.87-.49c-1,2.58-2,5.2-3,7.75-7.36,17.46-24.09,22.19-39.42,11.17-16-11.47-19.34-38.74-6.8-55.05,8.1-10.53,19.79-15.14,30.48-11.52,9.86,3.34,14.76,11.25,17.77,20.66a21.81,21.81,0,0,0,1.63,3.19l1.3-.41c0-6.44.15-12.88-.13-19.31a4.87,4.87,0,0,0-2.79-3.4c-6.7-2.3-13.39-5.36-20.3-6.13-17.1-1.89-32.72,1.5-44,16.17-12.9,16.77-9.81,42.56,6.42,56.09s41,12.65,58.22,3.82c1.05-.54,2.38-1.84,2.42-2.82C540.68,640.31,540.58,633.73,540.58,627.16Zm174.12,3.9-1.12.11c0,5.23.18,10.47-.08,15.69-.14,2.89,1.11,4,3.55,5,8.47,3.45,17.19,5.21,26.29,3.92,7.06-1,13.57-3.59,18.08-9.43,9.84-12.77,5.69-29.45-8.9-36.2-6.45-3-13.12-5.49-19.39-8.79A11.88,11.88,0,0,1,726.65,588c1-5.5,5-8.47,10-10,9.76-3,18.75,2.55,23,13.91.51,1.38,1.07,2.73,1.61,4.1l1.49-.35c0-4.72.28-9.47-.15-14.16-.15-1.67-1.76-4.27-3.13-4.58-7.2-1.61-14.55-3.65-21.83-3.6-11.74.08-21,8-22.92,17.76-2.39,12.05,2.06,20.84,13.7,26.81,4,2,8.14,3.68,12,5.89a37.3,37.3,0,0,1,8.8,6.3c5.7,6,3,16.82-4.68,20s-16.6.85-22.16-6.43C719.39,639.75,717.23,635.27,714.7,631.06Zm139.73,22.57h29.93c-6.59-3.17-7.83-7.34-7.71-12.93.37-16.32.25-32.66.08-49-.07-6.51-.91-13.06,6.49-16.55H855.74c6.21,6.26,6.21,6.26,6.21,15.92,0,16.49-.2,33,.11,49.49C862.17,646.32,861.54,651.08,854.43,653.63ZM722,387.17c-4.18-12.72-7.94-24.26-11.83-35.76a5.72,5.72,0,0,0-2.34-2.5c-11-7.27-22.09-14.48-34.17-22.39,7.78,16.26,17.14,30.85,15.21,48.47Zm-103-24.28a7.78,7.78,0,0,0,.36,1.69c7.3,11.91,14.74,23.74,13.58,38.66,0,.76,1.43,2.16,2.41,2.41,8.67,2.24,17.4,4.28,27.25,6.65-3.51-10.36-6.77-20.19-10.22-30a5.89,5.89,0,0,0-2.72-2.68C639.6,374.12,629.55,368.68,618.93,362.89Z" transform="translate(-444.65 -275.97)"/><path d="M844.15,513.21c-6.32-13.55-16.71-18.69-28.62-21.19-17-3.55-34.11-2.84-51.14-.49-58.12,8-112.19,29.41-166.28,50.72-4.45,1.75-8.84,3.67-13.27,5.5-.12,0-.31,0-.93-.17,35.85-44.69,45.26-93.13,21.56-146.77,8,4.23,16.26,8.55,24.46,12.89,10,5.27,19.82,10.72,29.91,15.74,3.5,1.74,4.5,4.14,4.81,7.71a201.61,201.61,0,0,1-3.93,60,2.44,2.44,0,0,0,.51,1.87c18.36-43.38,19.36-86.86-.05-131.15,20.58,13.59,40.48,26.6,60.17,39.94,1.78,1.2,2.86,4.37,3.12,6.74,2.62,24.52.56,48.73-5,72.63C745.63,436.46,743.85,386,717,334.48c5.41,3.73,9.67,6.57,13.83,9.55,4.32,3.09,8.66,6.17,12.79,9.51,24.31,19.6,48.88,38.91,72.69,59.11,10.48,8.89,19.82,19.26,28.88,29.65,12.09,13.87,14.77,30.17,9,47.53C851.65,497.42,847.88,504.61,844.15,513.21Z" transform="translate(-444.65 -275.97)"/><path d="M733.69,283.83C744,291.2,754.43,298.31,764.46,306c15.47,11.85,30,24.71,40.86,41.21,5.29,8.06,9.56,16.52,11.53,26.15,1.48,7.23.21,13.78-2.81,20.82-2-3.57-3.59-7-5.67-10-9.72-14.18-23.77-22.88-38.89-30.12-3.42-1.64-6.89-3.43-10.55-4.3-6.32-1.49-8.68-5-9.13-11.5-1.29-18.47-8.46-35.27-16.19-51.81-.25-.54-.53-1.06-.79-1.59Z" transform="translate(-444.65 -275.97)"/><path d="M919.65,653.84h-26c6.25-3.51,6.11-9.13,6-15.12-.24-16.66-.31-33.33,0-50,.12-5.9-.84-10.52-6.75-13.5,1.19-.09,2.38-.27,3.57-.27,12.49,0,25-.13,37.48.12,18,.36,27.59,16.33,19.73,32.63-3.16,6.55-7.06,8.9-19.18,10.9,2.63,1.46,4.34,3.19,6,3.17,3.42,0,4.37,2.16,5.86,4.39q10.77,16.07,21.82,31.94c1,1.41,2.6,2.39,3.88,3.54-10.19,1.63-23-2.95-28.69-11.43-7.51-11.25-14.26-23-21.35-34.57.72-.37.85-.51,1-.51,6.36.07,12.46-.45,15.47-7.38,3.48-8,3.28-15.84-1.34-23.32-3.12-5-16.08-8.32-20.77-5.19a5.81,5.81,0,0,0-1.86,4.22c-.12,20.66-.28,41.32.15,62C914.81,648.35,918,651.18,919.65,653.84Z" transform="translate(-444.65 -275.97)"/><path d="M675.12,618.86c2.27,1.23,3.53,2.49,4.81,2.5,5.17,0,6.66,3.95,8.72,7.49,3.42,5.87,6.73,11.83,10.62,17.38,3.77,5.39,8.2,10.31,12.21,15.28-7.32,2.13-21.61-2.59-27.06-10.63-7.7-11.34-14.4-23.35-21.53-35.08.8-.49,1.06-.78,1.3-.77,7.29.53,13.16-1.32,15.83-9,3-8.69,2.24-16.88-4-23.73-5-5.49-12.06-3.67-18.4-3.19-1,.08-2.66,3-2.67,4.64-.19,20.5-.33,41,.1,61.49.06,2.85,3.22,5.64,4.92,8.42H632.41c8.36-2.7,7.73-8.73,7.67-14.75q-.21-24.25,0-48.5c0-5.91.67-11.81-6.51-14.5,15.76,0,31.22-1.17,46.4.36,12.9,1.3,17.35,9.22,16.62,23.25q-.86,16.41-19,18.55A21.41,21.41,0,0,0,675.12,618.86Z" transform="translate(-444.65 -275.97)"/><path d="M549.41,614.8c-.14-24.28,16.65-41.64,40.39-41.75s41.59,17.48,41.72,41.34-17.54,41.71-41.3,41.8S549.54,639.05,549.41,614.8Zm66.45-.51c-1.67-7.2-2.5-14.73-5.17-21.53-6.63-16.88-25.13-20.3-36.19-7.19-13.42,15.91-11.63,47.11,3.52,61.36,6.9,6.48,15.52,7,23,1.29C612.22,639.71,614.52,627.55,615.86,614.29Z" transform="translate(-444.65 -275.97)"/><path d="M846.56,654.09c-7.4,0-15.8,0-24.21,0-1.25,0-2.5-.14-4.08-.24,6.83-6.45,6.83-6.45,3.37-15-4-9.94-4-9.94-15-9.94h-2c-17,0-17.25-.06-21.61,16.7-.6,2.32,2.38,5.58,3.64,8.24H768.54c8.94-8.37,10.55-20.19,15.08-30.54,6.49-14.84,12.27-30,18.09-45.13,1.19-3.08,3-3.4,5.67-3.2s5.21-.72,6.73,3.2c8.26,21.25,16.82,42.39,25.52,63.47C841.43,646,844.22,650,846.56,654.09Zm-31.35-31.21-11.7-29.44-11.72,29.44Z" transform="translate(-444.65 -275.97)"/><path d="M540.58,627.16c0,6.57.1,13.15-.11,19.72,0,1-1.37,2.28-2.42,2.82-17.21,8.83-42.08,9.64-58.22-3.82s-19.32-39.32-6.42-56.09c11.29-14.67,26.91-18.06,44-16.17,6.91.77,13.6,3.83,20.3,6.13a4.87,4.87,0,0,1,2.79,3.4c.28,6.43.13,12.87.13,19.31l-1.3.41a21.81,21.81,0,0,1-1.63-3.19c-3-9.41-7.91-17.32-17.77-20.66-10.69-3.62-22.38,1-30.48,11.52-12.54,16.31-9.18,43.58,6.8,55.05,15.33,11,32.06,6.29,39.42-11.17,1.08-2.55,2-5.17,3-7.75Z" transform="translate(-444.65 -275.97)"/><path d="M714.7,631.06c2.53,4.21,4.69,8.69,7.66,12.56,5.56,7.28,14.44,9.62,22.16,6.43s10.38-13.95,4.68-20a37.3,37.3,0,0,0-8.8-6.3c-3.87-2.21-8-3.85-12-5.89-11.64-6-16.09-14.76-13.7-26.81,1.94-9.79,11.18-17.68,22.92-17.76,7.28,0,14.63,2,21.83,3.6,1.37.31,3,2.91,3.13,4.58.43,4.69.15,9.44.15,14.16l-1.49.35c-.54-1.37-1.1-2.72-1.61-4.1-4.2-11.36-13.19-16.91-23-13.91-5,1.54-9,4.51-10,10a11.88,11.88,0,0,0,6.48,13.41c6.27,3.3,12.94,5.82,19.39,8.79,14.59,6.75,18.74,23.43,8.9,36.2-4.51,5.84-11,8.43-18.08,9.43-9.1,1.29-17.82-.47-26.29-3.92-2.44-1-3.69-2.15-3.55-5,.26-5.22.08-10.46.08-15.69Z" transform="translate(-444.65 -275.97)"/><path d="M854.43,653.63c7.11-2.55,7.74-7.31,7.63-13.06-.31-16.5-.11-33-.11-49.49,0-9.66,0-9.66-6.21-15.92h27.48c-7.4,3.49-6.56,10-6.49,16.55.17,16.33.29,32.67-.08,49-.12,5.59,1.12,9.76,7.71,12.93Z" transform="translate(-444.65 -275.97)"/><path d="M722,387.17,688.82,375c1.93-17.62-7.43-32.21-15.21-48.47,12.08,7.91,23.15,15.12,34.17,22.39a5.72,5.72,0,0,1,2.34,2.5C714,362.91,717.77,374.45,722,387.17Z" transform="translate(-444.65 -275.97)"/><path d="M618.93,362.89c10.62,5.79,20.67,11.23,30.66,16.76a5.89,5.89,0,0,1,2.72,2.68c3.45,9.78,6.71,19.61,10.22,30-9.85-2.37-18.58-4.41-27.25-6.65-1-.25-2.46-1.65-2.41-2.41,1.16-14.92-6.28-26.75-13.58-38.66A7.78,7.78,0,0,1,618.93,362.89Z" transform="translate(-444.65 -275.97)"/><path class="cls-1" d="M615.86,614.29c-1.34,13.26-3.64,25.42-14.8,33.93-7.52,5.74-16.14,5.19-23-1.29-15.15-14.25-16.94-45.45-3.52-61.36,11.06-13.11,29.56-9.69,36.19,7.19C613.36,599.56,614.19,607.09,615.86,614.29Z" transform="translate(-444.65 -275.97)"/><path class="cls-1" d="M815.21,622.88H791.79l11.72-29.44Z" transform="translate(-444.65 -275.97)"/></svg>