<?xml version="1.0" encoding="utf-8"?>
<!-- Generator: Adobe Illustrator 23.0.2, SVG Export Plug-In . SVG Version: 6.00 Build 0)  -->
<svg version="1.1" id="Calque_1" xmlns="http://www.w3.org/2000/svg" xmlns:xlink="http://www.w3.org/1999/xlink" x="0px" y="0px"
	 viewBox="0 0 1920 1080" style="enable-background:new 0 0 1920 1080;" xml:space="preserve">
<style type="text/css">
	.st0{fill:#FFFFFF;}
</style>
<g>
	<path class="st0" d="M384.83,647.11c0-131.33,0-262.67,0-394c183.33,0,366.67,0,550,0c0,131.33,0,262.67,0,394
		C751.5,647.11,568.17,647.11,384.83,647.11z M784.33,490.35c3.73-8.6,7.5-15.79,10.01-23.38c5.75-17.36,3.07-33.66-9.02-47.52
		c-9.06-10.4-18.4-20.77-28.88-29.66c-23.81-20.2-48.38-39.51-72.69-59.11c-4.13-3.33-8.47-6.41-12.79-9.51
		c-4.16-2.98-8.42-5.82-13.82-9.55c26.9,51.55,28.67,101.98,2.55,152.66c5.53-23.91,7.59-48.11,4.96-72.63
		c-0.25-2.38-1.34-5.54-3.12-6.75c-19.69-13.33-39.59-26.35-60.18-39.93c19.41,44.28,18.42,87.76,0.06,131.15
		c-0.44-0.62-0.63-1.28-0.51-1.87c4.19-19.8,5.71-39.76,3.93-59.96c-0.32-3.57-1.31-5.97-4.82-7.71
		c-10.08-5.01-19.95-10.47-29.9-15.74c-8.21-4.34-16.43-8.66-24.46-12.89c23.7,53.63,14.29,102.08-21.56,146.77
		c0.63,0.12,0.81,0.22,0.93,0.17c4.43-1.83,8.82-3.75,13.27-5.5c54.08-21.31,108.15-42.71,166.28-50.72
		c17.03-2.35,34.18-3.06,51.14,0.5C767.62,471.66,778.02,476.8,784.33,490.35z M673.88,260.97c-0.29,0.34-0.59,0.68-0.88,1.02
		c0.27,0.53,0.55,1.05,0.8,1.59c7.73,16.55,14.9,33.34,16.18,51.81c0.46,6.52,2.81,10.01,9.14,11.5c3.65,0.86,7.12,2.66,10.55,4.3
		c15.12,7.24,29.16,15.93,38.88,30.12c2.08,3.04,3.67,6.43,5.67,10c3.02-7.03,4.29-13.58,2.81-20.81
		c-1.97-9.63-6.24-18.09-11.53-26.16c-10.82-16.5-25.39-29.36-40.86-41.21C694.61,275.45,684.15,268.34,673.88,260.97z
		 M859.84,630.98c-1.63-2.66-4.85-5.49-4.91-8.39c-0.44-20.65-0.27-41.31-0.15-61.97c0.01-1.44,0.77-3.48,1.86-4.21
		c4.68-3.14,17.64,0.14,20.76,5.19c4.62,7.48,4.82,15.33,1.34,23.32c-3.01,6.92-9.11,7.44-15.47,7.38c-0.13,0-0.27,0.13-0.99,0.5
		c7.1,11.57,13.84,23.32,21.35,34.57c5.66,8.48,18.5,13.06,28.69,11.43c-1.28-1.15-2.9-2.12-3.88-3.54
		c-7.36-10.59-14.64-21.23-21.82-31.94c-1.5-2.23-2.44-4.43-5.87-4.39c-1.69,0.02-3.4-1.72-6.03-3.17c12.11-2,16.02-4.34,19.18-10.9
		c7.86-16.29-1.71-32.26-19.73-32.63c-12.49-0.25-24.99-0.11-37.48-0.12c-1.19,0-2.38,0.17-3.57,0.27c5.91,2.98,6.87,7.6,6.75,13.5
		c-0.35,16.65-0.28,33.32-0.04,49.98c0.09,5.99,0.22,11.61-6.02,15.13C842.73,630.98,851.65,630.98,859.84,630.98z M615.3,596
		c1.65-0.53,2.08-0.75,2.53-0.8c12.06-1.42,18.39-7.61,18.96-18.55c0.73-14.03-3.72-21.95-16.62-23.25
		c-15.18-1.53-30.64-0.36-46.41-0.36c7.18,2.69,6.57,8.58,6.51,14.5c-0.15,16.16-0.15,32.33,0,48.5c0.05,6.03,0.69,12.06-7.67,14.75
		c10.35,0,19.36,0,27.53,0c-1.7-2.78-4.86-5.56-4.92-8.41c-0.43-20.49-0.29-40.99-0.1-61.49c0.01-1.63,1.63-4.57,2.67-4.65
		c6.34-0.48,13.37-2.3,18.4,3.2c6.27,6.85,7.04,15.04,4.03,23.72c-2.67,7.69-8.53,9.55-15.83,9.02c-0.24-0.02-0.5,0.28-1.3,0.76
		c7.14,11.74,13.84,23.74,21.53,35.08c5.46,8.04,19.75,12.76,27.07,10.63c-4.01-4.97-8.45-9.89-12.22-15.27
		c-3.89-5.55-7.2-11.52-10.62-17.39c-2.06-3.54-3.54-7.45-8.71-7.48C618.84,598.49,617.57,597.23,615.3,596z M489.59,591.94
		c0.13,24.25,17.13,41.48,40.82,41.39c23.75-0.09,41.43-17.99,41.3-41.81c-0.13-23.85-17.89-41.45-41.73-41.34
		C506.25,550.3,489.45,567.66,489.59,591.94z M786.74,631.23c-2.34-4.14-5.14-8.1-6.94-12.47c-8.69-21.08-17.26-42.22-25.52-63.48
		c-1.52-3.92-4.08-2.98-6.73-3.19c-2.64-0.21-4.48,0.11-5.67,3.2c-5.82,15.13-11.6,30.29-18.1,45.13
		c-4.53,10.35-6.14,22.17-15.07,30.54c6.59,0,12.82,0,18.07,0c-1.25-2.67-4.24-5.92-3.64-8.24c4.36-16.77,4.59-16.71,21.61-16.71
		c0.67,0,1.33,0,2,0c11.04,0,11.04,0,15.05,9.94c3.46,8.57,3.46,8.57-3.37,15.03c1.58,0.1,2.84,0.23,4.09,0.24
		C770.94,631.24,779.34,631.23,786.74,631.23z M480.76,604.3c-0.62-0.16-1.25-0.33-1.87-0.49c-1,2.59-1.95,5.2-3.02,7.75
		c-7.36,17.45-24.09,22.18-39.42,11.17c-15.98-11.48-19.34-38.74-6.8-55.05c8.1-10.53,19.79-15.14,30.48-11.52
		c9.86,3.34,14.75,11.25,17.77,20.66c0.36,1.12,1.08,2.13,1.63,3.19c0.43-0.14,0.87-0.27,1.3-0.41c0-6.44,0.15-12.88-0.13-19.3
		c-0.05-1.21-1.57-2.98-2.79-3.4c-6.69-2.3-13.38-5.36-20.3-6.13c-17.09-1.9-32.72,1.5-44,16.17c-12.9,16.77-9.82,42.56,6.41,56.09
		c16.14,13.46,41.01,12.65,58.22,3.82c1.05-0.54,2.39-1.84,2.42-2.82C480.86,617.45,480.76,610.87,480.76,604.3z M654.88,608.21
		c-0.37,0.03-0.75,0.07-1.12,0.1c0,5.23,0.19,10.48-0.07,15.7c-0.14,2.88,1.11,4.04,3.55,5.03c8.47,3.45,17.19,5.21,26.29,3.92
		c7.06-1,13.57-3.59,18.08-9.43c9.84-12.77,5.69-29.44-8.9-36.19c-6.44-2.98-13.12-5.49-19.38-8.79c-5.15-2.72-7.56-7.51-6.49-13.41
		c1-5.5,5.03-8.47,10.02-10c9.76-3,18.76,2.55,22.95,13.91c0.51,1.38,1.07,2.73,1.61,4.1c0.5-0.12,1-0.23,1.49-0.35
		c0-4.73,0.28-9.48-0.15-14.16c-0.15-1.67-1.77-4.27-3.13-4.58c-7.21-1.61-14.55-3.65-21.84-3.6c-11.74,0.08-20.98,7.97-22.92,17.76
		c-2.39,12.05,2.06,20.83,13.7,26.81c3.97,2.04,8.15,3.68,12.01,5.88c3.13,1.78,6.36,3.73,8.8,6.3c5.71,6.04,3.01,16.82-4.67,19.99
		c-7.72,3.19-16.6,0.85-22.17-6.43C659.58,616.89,657.41,612.41,654.88,608.21z M794.61,630.77c10.4,0,19.39,0,29.93,0
		c-6.58-3.17-7.83-7.34-7.7-12.93c0.37-16.32,0.25-32.66,0.07-48.99c-0.07-6.51-0.9-13.07,6.49-16.55c-9.1,0-18.2,0-27.49,0
		c6.21,6.26,6.21,6.26,6.21,15.92c0,16.5-0.2,33,0.11,49.49C802.35,623.46,801.73,628.22,794.61,630.77z M662.14,364.31
		c-4.19-12.72-7.94-24.27-11.83-35.76c-0.34-0.99-1.4-1.88-2.34-2.5c-11.02-7.27-22.08-14.48-34.17-22.39
		c7.78,16.25,17.14,30.85,15.21,48.47C639.62,356.04,649.95,359.83,662.14,364.31z M559.11,340.04c0.23,1.1,0.21,1.45,0.36,1.69
		c7.31,11.9,14.75,23.73,13.59,38.65c-0.06,0.76,1.42,2.16,2.41,2.41c8.67,2.24,17.39,4.28,27.24,6.65
		c-3.5-10.36-6.77-20.2-10.21-29.97c-0.38-1.09-1.63-2.08-2.72-2.68C579.78,351.26,569.74,345.82,559.11,340.04z"/>
	<path d="M784.33,490.35c-6.32-13.55-16.71-18.69-28.62-21.19c-16.96-3.56-34.11-2.84-51.14-0.5
		c-58.12,8.01-112.19,29.41-166.28,50.72c-4.45,1.76-8.85,3.67-13.27,5.5c-0.12,0.05-0.31-0.05-0.93-0.17
		c35.85-44.69,45.26-93.14,21.56-146.77c8.04,4.23,16.26,8.55,24.46,12.89c9.96,5.27,19.82,10.72,29.9,15.74
		c3.51,1.74,4.5,4.14,4.82,7.71c1.78,20.2,0.26,40.16-3.93,59.96c-0.13,0.59,0.07,1.25,0.51,1.87
		c18.36-43.38,19.36-86.86-0.06-131.15c20.58,13.59,40.49,26.6,60.18,39.93c1.78,1.2,2.86,4.37,3.12,6.75
		c2.63,24.51,0.56,48.72-4.96,72.63c26.12-50.68,24.35-101.11-2.55-152.66c5.4,3.72,9.66,6.57,13.82,9.55
		c4.32,3.09,8.66,6.17,12.79,9.51c24.31,19.61,48.88,38.91,72.69,59.11c10.48,8.89,19.82,19.26,28.88,29.66
		c12.08,13.86,14.77,30.17,9.02,47.52C791.83,474.57,788.06,481.75,784.33,490.35z"/>
	<path d="M673.88,260.97c10.27,7.37,20.73,14.48,30.76,22.17c15.48,11.85,30.04,24.71,40.86,41.21c5.29,8.07,9.56,16.53,11.53,26.16
		c1.48,7.23,0.21,13.78-2.81,20.81c-2.01-3.57-3.59-6.96-5.67-10c-9.72-14.19-23.76-22.88-38.88-30.12
		c-3.43-1.64-6.9-3.44-10.55-4.3c-6.33-1.5-8.68-4.98-9.14-11.5c-1.29-18.47-8.45-35.27-16.18-51.81c-0.25-0.54-0.53-1.06-0.8-1.59
		C673.29,261.65,673.58,261.31,673.88,260.97z"/>
	<path d="M859.84,630.98c-8.18,0-17.1,0-26.02,0c6.24-3.51,6.11-9.13,6.02-15.13c-0.24-16.66-0.31-33.33,0.04-49.98
		c0.12-5.9-0.84-10.51-6.75-13.5c1.19-0.09,2.38-0.27,3.57-0.27c12.5,0.01,24.99-0.14,37.48,0.12
		c18.02,0.36,27.59,16.33,19.73,32.63c-3.16,6.56-7.07,8.9-19.18,10.9c2.63,1.46,4.34,3.2,6.03,3.17c3.42-0.04,4.37,2.15,5.87,4.39
		c7.17,10.71,14.46,21.35,21.82,31.94c0.98,1.41,2.6,2.39,3.88,3.54c-10.19,1.63-23.03-2.95-28.69-11.43
		c-7.51-11.24-14.26-23-21.35-34.57c0.72-0.37,0.86-0.51,0.99-0.5c6.36,0.06,12.46-0.46,15.47-7.38c3.48-7.99,3.28-15.84-1.34-23.32
		c-3.12-5.05-16.08-8.33-20.76-5.19c-1.1,0.73-1.85,2.77-1.86,4.21c-0.12,20.66-0.29,41.32,0.15,61.97
		C854.99,625.49,858.2,628.32,859.84,630.98z"/>
	<path d="M615.3,596c2.27,1.23,3.54,2.49,4.82,2.5c5.17,0.04,6.65,3.95,8.71,7.48c3.42,5.87,6.73,11.83,10.62,17.39
		c3.77,5.39,8.21,10.31,12.22,15.27c-7.32,2.13-21.61-2.59-27.07-10.63c-7.69-11.34-14.39-23.34-21.53-35.08
		c0.8-0.48,1.06-0.78,1.3-0.76c7.3,0.53,13.16-1.33,15.83-9.02c3.02-8.69,2.24-16.87-4.03-23.72c-5.03-5.49-12.05-3.68-18.4-3.2
		c-1.04,0.08-2.66,3.02-2.67,4.65c-0.19,20.5-0.33,41,0.1,61.49c0.06,2.85,3.22,5.64,4.92,8.41c-8.16,0-17.17,0-27.53,0
		c8.36-2.69,7.73-8.72,7.67-14.75c-0.14-16.16-0.15-32.33,0-48.5c0.05-5.91,0.67-11.81-6.51-14.5c15.77,0,31.22-1.17,46.41,0.36
		c12.9,1.3,17.35,9.22,16.62,23.25c-0.57,10.94-6.9,17.13-18.96,18.55C617.38,595.25,616.95,595.47,615.3,596z"/>
	<path d="M489.59,591.94c-0.13-24.28,16.66-41.64,40.39-41.75c23.83-0.11,41.59,17.48,41.73,41.34
		c0.13,23.82-17.54,41.72-41.3,41.81C506.72,633.43,489.72,616.19,489.59,591.94z M556.05,591.43c-1.67-7.2-2.5-14.73-5.18-21.54
		c-6.63-16.87-25.12-20.3-36.18-7.19c-13.43,15.91-11.64,47.12,3.52,61.36c6.9,6.48,15.52,7.03,23.04,1.29
		C552.4,616.85,554.7,604.69,556.05,591.43z"/>
	<path d="M786.74,631.23c-7.4,0-15.81,0.01-24.21-0.01c-1.25,0-2.5-0.14-4.09-0.24c6.83-6.46,6.83-6.46,3.37-15.03
		c-4.01-9.94-4.01-9.94-15.05-9.94c-0.67,0-1.33,0-2,0c-17.02,0-17.25-0.06-21.61,16.71c-0.6,2.32,2.38,5.57,3.64,8.24
		c-5.25,0-11.48,0-18.07,0c8.93-8.37,10.55-20.19,15.07-30.54c6.49-14.84,12.27-30.01,18.1-45.13c1.19-3.08,3.03-3.4,5.67-3.2
		c2.65,0.21,5.21-0.73,6.73,3.19c8.26,21.26,16.82,42.4,25.52,63.48C781.61,623.13,784.41,627.09,786.74,631.23z M755.39,600.02
		c-3.92-9.86-7.59-19.1-11.7-29.44c-4.14,10.4-7.86,19.75-11.72,29.44C739.92,600.02,747.32,600.02,755.39,600.02z"/>
	<path d="M480.76,604.3c0,6.58,0.1,13.15-0.11,19.72c-0.03,0.98-1.37,2.28-2.42,2.82c-17.21,8.83-42.08,9.64-58.22-3.82
		c-16.23-13.53-19.31-39.32-6.41-56.09c11.28-14.66,26.91-18.06,44-16.17c6.92,0.77,13.61,3.83,20.3,6.13
		c1.22,0.42,2.74,2.19,2.79,3.4c0.28,6.42,0.13,12.87,0.13,19.3c-0.43,0.14-0.87,0.27-1.3,0.41c-0.55-1.06-1.27-2.07-1.63-3.19
		c-3.01-9.41-7.91-17.32-17.77-20.66c-10.69-3.62-22.38,0.99-30.48,11.52c-12.55,16.31-9.18,43.58,6.8,55.05
		c15.34,11.02,32.07,6.29,39.42-11.17c1.08-2.56,2.02-5.17,3.02-7.75C479.51,603.97,480.14,604.13,480.76,604.3z"/>
	<path d="M654.88,608.21c2.53,4.21,4.69,8.69,7.66,12.56c5.57,7.27,14.45,9.61,22.17,6.43c7.68-3.17,10.38-13.95,4.67-19.99
		c-2.44-2.58-5.67-4.52-8.8-6.3c-3.87-2.2-8.05-3.85-12.01-5.88c-11.64-5.98-16.09-14.76-13.7-26.81
		c1.94-9.79,11.18-17.69,22.92-17.76c7.28-0.05,14.63,1.99,21.84,3.6c1.36,0.3,2.98,2.91,3.13,4.58c0.43,4.69,0.15,9.44,0.15,14.16
		c-0.5,0.12-1,0.23-1.49,0.35c-0.54-1.37-1.1-2.72-1.61-4.1c-4.19-11.36-13.19-16.91-22.95-13.91c-4.99,1.54-9.02,4.5-10.02,10
		c-1.08,5.91,1.33,10.7,6.49,13.41c6.26,3.3,12.94,5.82,19.38,8.79c14.59,6.75,18.74,23.42,8.9,36.19
		c-4.51,5.85-11.02,8.43-18.08,9.43c-9.1,1.29-17.82-0.47-26.29-3.92c-2.44-0.99-3.69-2.15-3.55-5.03
		c0.26-5.22,0.07-10.46,0.07-15.7C654.13,608.27,654.51,608.24,654.88,608.21z"/>
	<path d="M794.61,630.77c7.11-2.55,7.74-7.31,7.63-13.06c-0.31-16.49-0.11-32.99-0.11-49.49c0-9.66,0-9.66-6.21-15.92
		c9.29,0,18.39,0,27.49,0c-7.4,3.49-6.56,10.04-6.49,16.55c0.17,16.33,0.29,32.67-0.07,48.99c-0.13,5.59,1.12,9.76,7.7,12.93
		C814.01,630.77,805.02,630.77,794.61,630.77z"/>
	<path d="M662.14,364.31c-12.19-4.48-22.52-8.28-33.14-12.18c1.93-17.62-7.43-32.22-15.21-48.47c12.09,7.91,23.15,15.12,34.17,22.39
		c0.94,0.62,2.01,1.51,2.34,2.5C654.19,340.05,657.95,351.59,662.14,364.31z"/>
	<path d="M559.11,340.04c10.63,5.79,20.67,11.22,30.67,16.75c1.09,0.6,2.34,1.59,2.72,2.68c3.44,9.77,6.71,19.61,10.21,29.97
		c-9.85-2.38-18.57-4.42-27.24-6.65c-0.98-0.25-2.47-1.65-2.41-2.41c1.16-14.92-6.28-26.75-13.59-38.65
		C559.32,341.48,559.34,341.13,559.11,340.04z"/>
	<path class="st0" d="M556.05,591.43c-1.34,13.26-3.65,25.42-14.8,33.93c-7.52,5.74-16.14,5.19-23.04-1.29
		c-15.16-14.24-16.94-45.45-3.52-61.36c11.06-13.11,29.56-9.68,36.18,7.19C553.54,576.7,554.38,584.23,556.05,591.43z"/>
	<path class="st0" d="M755.39,600.02c-8.08,0-15.47,0-23.42,0c3.86-9.69,7.58-19.04,11.72-29.44
		C747.8,580.93,751.48,590.17,755.39,600.02z"/>
</g>
</svg>
