<?xml version="1.0" encoding="UTF-8" standalone="no"?>
<!-- Created with Inkscape (http://www.inkscape.org/) -->

<svg
   xmlns:dc="http://purl.org/dc/elements/1.1/"
   xmlns:cc="http://creativecommons.org/ns#"
   xmlns:rdf="http://www.w3.org/1999/02/22-rdf-syntax-ns#"
   xmlns:svg="http://www.w3.org/2000/svg"
   xmlns="http://www.w3.org/2000/svg"
   xmlns:sodipodi="http://sodipodi.sourceforge.net/DTD/sodipodi-0.dtd"
   xmlns:inkscape="http://www.inkscape.org/namespaces/inkscape"
   version="1.1"
   id="svg5089"
   width="1180"
   height="1180"
   viewBox="0 0 1180 1180"
   sodipodi:docname="Discord.svg"
   inkscape:version="0.92.4 (5da689c313, 2019-01-14)">
  <metadata
     id="metadata5095">
    <rdf:RDF>
      <cc:Work
         rdf:about="">
        <dc:format>image/svg+xml</dc:format>
        <dc:type
           rdf:resource="http://purl.org/dc/dcmitype/StillImage" />
        <dc:title></dc:title>
      </cc:Work>
    </rdf:RDF>
  </metadata>
  <defs
     id="defs5093" />
  <sodipodi:namedview
     pagecolor="#ffffff"
     bordercolor="#666666"
     borderopacity="1"
     objecttolerance="10"
     gridtolerance="10"
     guidetolerance="10"
     inkscape:pageopacity="0"
     inkscape:pageshadow="2"
     inkscape:window-width="1920"
     inkscape:window-height="1017"
     id="namedview5091"
     showgrid="false"
     inkscape:zoom="0.40136054"
     inkscape:cx="375.72879"
     inkscape:cy="588.66339"
     inkscape:window-x="-8"
     inkscape:window-y="-8"
     inkscape:window-maximized="1"
     inkscape:current-layer="svg5089" />
  <path
     style="fill:#7289da;fill-opacity:1;stroke-width:1.20351696"
     d="m 1050.8446,1127.4807 c -52.22192,-46.1271 -88.5756,-79.3032 -188.32766,-171.86674 -13.22629,-12.27307 -24.24353,-22.11886 -24.48279,-21.87954 -0.23938,0.23932 6.38478,24.29751 14.72034,53.46265 8.33556,29.16513 15.15553,53.58383 15.15553,54.26373 0,0.8438 -108.57216,1.1191 -342.09971,0.8674 -376.55694,-0.4059 -345.7944,0.2231 -366.29796,-7.4894 C 118.19648,1019.2977 88.24011,982.04576 82.066285,938.53146 81.068244,931.49708 80.800173,818.78 81.063117,516.72722 L 81.421946,104.52265 84.687015,93.450725 C 99.762618,42.328933 140.2244,8.6136918 192.00124,4.0299147 c 18.21516,-1.6125757 789.61273,-1.6125757 807.82784,0 30.77032,2.7240729 57.32712,15.4705273 78.09092,37.4812283 14.0297,14.872197 22.9846,30.787385 29.2245,51.939582 l 3.2663,11.071925 0.3145,454.92943 c 0.1729,250.21118 0.1747,492.21652 0,537.78962 l -0.3106,82.8602 -59.5741,-52.6212 z M 455.86082,748.40425 c 10.69553,-13.23869 19.20127,-24.47653 18.90171,-24.97298 -0.29955,-0.49645 -1.34541,-0.90264 -2.32423,-0.90264 -2.89939,0 -23.12185,-8.13983 -34.78561,-14.00173 -22.24328,-11.1788 -47.39294,-30.74792 -59.90422,-46.61175 l -3.88218,-4.92248 4.81407,2.89154 c 2.64773,1.59035 6.16802,3.80765 7.82286,4.92735 8.02132,5.42736 30.26761,16.28778 47.56431,23.22044 42.44516,17.01241 80.83711,26.93073 125.14038,32.32929 16.49805,2.01037 72.39106,1.97731 89.06026,-0.0527 17.88414,-2.17795 42.78262,-6.78412 59.57409,-11.02108 34.30228,-8.65543 82.24666,-28.26746 109.18583,-44.66339 4.48635,-2.73057 8.6173,-5.2364 9.17982,-5.56852 3.17127,-1.87252 -2.77964,5.27262 -12.04178,14.45831 -21.4527,21.27559 -50.1088,38.35125 -81.05952,48.30188 -4.30787,1.38494 -8.09895,2.91613 -8.42462,3.40263 -0.32579,0.4865 7.97667,11.45354 18.44979,24.37122 l 19.04217,23.48672 h 7.67447 c 10.63812,0 33.48677,-3.13218 47.99987,-6.58 49.90696,-11.85626 93.88527,-39.24385 121.48047,-75.65223 l 4.40283,-5.80888 v -17.11824 c 0,-91.38095 -28.85312,-211.09736 -74.43656,-308.8505 l -9.2601,-19.85803 -15.61961,-10.54959 C 802.61164,300.42441 747.88026,280.58976 703.59757,277.62656 l -10.8639,-0.72697 -3.87918,4.41806 c -2.13347,2.42994 -3.87906,4.89026 -3.87906,5.4674 0,0.57713 6.90518,3.33984 15.34485,6.13934 28.9228,9.59393 60.20497,23.51284 85.28314,37.94645 12.15251,6.9943 36.20612,23.01791 37.36306,24.8898 0.35251,0.57053 -4.1821,-1.38501 -10.07705,-4.34561 -70.65186,-35.48352 -155.68876,-53.09042 -236.23919,-48.91339 -77.79594,4.0342 -133.35703,17.43396 -199.1734,48.03495 -13.97344,6.49686 -13.53223,5.65239 3.00879,-5.7594 29.87803,-20.61316 71.98247,-40.48179 115.23675,-54.37898 8.77064,-2.81792 15.94661,-5.50716 15.94661,-5.97609 0,-0.46893 -1.1815,-2.35455 -2.62548,-4.19028 l -2.62535,-3.33769 -11.8733,0.77809 c -46.33973,3.03683 -104.32855,25.06051 -147.58861,56.05293 -8.47902,6.0746 -11.37853,10.91166 -24.20826,40.38529 -41.88889,96.23076 -64.50719,193.57582 -67.86577,292.08199 l -0.60281,17.68009 5.74912,7.59376 c 27.47374,36.28888 70.37431,63.06427 119.85534,74.80505 17.24544,4.09198 36.25294,6.65306 47.52159,6.40309 l 9.00905,-0.19985 z m 17.00906,-123.29052 c -9.37804,-2.99795 -17.603,-8.50197 -25.57931,-17.11731 -22.39239,-24.18645 -23.21427,-61.98849 -1.92394,-88.49463 13.99125,-17.41895 39.15294,-25.09265 60.45892,-18.43852 9.96933,3.11356 15.28214,6.45345 24.06228,15.12655 8.46493,8.36182 14.67231,20.01184 17.27961,32.4306 2.2383,10.66085 2.24865,16.15312 0.0518,27.63292 -4.39632,22.97755 -21.01894,42.48758 -41.67767,48.91731 -9.42691,2.93397 -23.39204,2.90964 -32.672,-0.0569 z m 214.23783,-0.48477 c -15.19393,-5.17813 -26.9441,-15.71259 -34.76612,-31.16922 -4.89434,-9.67116 -7.08222,-19.06187 -7.08222,-30.39711 0,-25.89881 13.36674,-48.1489 35.49557,-59.08557 8.51849,-4.2101 10.41331,-4.67054 20.9347,-5.08722 9.50766,-0.37653 12.93769,0.005 19.25483,2.13844 15.03385,5.07871 27.09405,15.4181 34.75949,29.79994 5.36673,10.06906 7.62513,19.61622 7.62513,32.23441 0,12.61819 -2.2584,22.16535 -7.62513,32.23441 -13.9088,26.09551 -42.37559,38.26799 -68.59625,29.33192 z"
     id="path5099"
     inkscape:connector-curvature="0" />
</svg>
