<?xml version="1.0" encoding="UTF-8" standalone="no"?>
<!-- Created with Inkscape (http://www.inkscape.org/) -->

<svg
   xmlns:dc="http://purl.org/dc/elements/1.1/"
   xmlns:cc="http://creativecommons.org/ns#"
   xmlns:rdf="http://www.w3.org/1999/02/22-rdf-syntax-ns#"
   xmlns:svg="http://www.w3.org/2000/svg"
   xmlns="http://www.w3.org/2000/svg"
   xmlns:xlink="http://www.w3.org/1999/xlink"
   xmlns:sodipodi="http://sodipodi.sourceforge.net/DTD/sodipodi-0.dtd"
   xmlns:inkscape="http://www.inkscape.org/namespaces/inkscape"
   version="1.1"
   id="svg36"
   width="1180"
   height="1180"
   viewBox="0 0 1180 1180"
   sodipodi:docname="instagram-png-instagram-png-logo-1455 (1).svg"
   inkscape:version="0.92.4 (5da689c313, 2019-01-14)">
  <metadata
     id="metadata42">
    <rdf:RDF>
      <cc:Work
         rdf:about="">
        <dc:format>image/svg+xml</dc:format>
        <dc:type
           rdf:resource="http://purl.org/dc/dcmitype/StillImage" />
        <dc:title></dc:title>
      </cc:Work>
    </rdf:RDF>
  </metadata>
  <defs
     id="defs40">
    <linearGradient
       inkscape:collect="always"
       id="linearGradient10954">
      <stop
         style="stop-color:#ffff00;stop-opacity:1"
         offset="0"
         id="stop10950" />
      <stop
         id="stop3062"
         offset="0.55887341"
         style="stop-color:#f70408;stop-opacity:1" />
      <stop
         style="stop-color:#7a38ac;stop-opacity:1"
         offset="1"
         id="stop10952" />
    </linearGradient>
    <linearGradient
       inkscape:collect="always"
       xlink:href="#linearGradient10954"
       id="linearGradient10956"
       x1="1937.9146"
       y1="1478.4004"
       x2="2587.6272"
       y2="566.81354"
       gradientUnits="userSpaceOnUse"
       gradientTransform="matrix(0.80934933,0,0,0.80934933,-1287.0983,-17.670339)" />
  </defs>
  <sodipodi:namedview
     pagecolor="#ffffff"
     bordercolor="#666666"
     borderopacity="1"
     objecttolerance="10"
     gridtolerance="10"
     guidetolerance="10"
     inkscape:pageopacity="0"
     inkscape:pageshadow="2"
     inkscape:window-width="1920"
     inkscape:window-height="1017"
     id="namedview38"
     showgrid="false"
     inkscape:zoom="0.32462173"
     inkscape:cx="301.71799"
     inkscape:cy="969.44432"
     inkscape:window-x="-8"
     inkscape:window-y="-8"
     inkscape:window-maximized="1"
     inkscape:current-layer="svg36" />
  <path
     style="fill:url(#linearGradient10956);fill-opacity:1;stroke-width:0.80934936"
     d="m 281.35159,1178.872 c -16.79197,-2.0082 -20.43153,-2.5154 -26.30385,-3.6652 -21.9031,-4.2888 -39.27359,-9.2652 -59.0825,-16.9262 -28.26418,-10.931 -63.23115,-31.8365 -83.84284,-50.1265 -2.0445,-1.8141 -6.41224,-5.6658 -9.70613,-8.5592 C 86.509484,1085.622 67.537542,1063.9576 54.558088,1044.9448 25.495163,1002.372 8.5522436,956.42777 2.33377,903.32757 0.9975343,891.91728 0.92784933,873.22989 1.1746199,592.53744 1.460644,267.25445 1.2078033,284.43826 6.1190159,256.2528 8.468395,242.76894 19.10365,205.14107 21.560025,201.62172 c 0.310709,-0.44515 0.990887,-2.07298 1.511541,-3.61742 1.540596,-4.57006 3.382271,-8.63782 9.904898,-21.87709 6.907716,-14.02078 11.344164,-21.74383 19.227793,-33.47146 2.949188,-4.38733 5.948718,-8.86327 6.665477,-9.94653 7.887191,-11.91967 28.587093,-34.954824 43.725806,-48.658686 41.18844,-37.284628 86.12384,-60.580316 141.52599,-73.370852 2.89342,-0.667997 7.62811,-1.6106619 10.52154,-2.0948227 30.63783,-5.1266453 10.08425,-4.830035 334.66595,-4.8295979 308.76062,4.047e-4 301.50707,-0.070818 324.54917,3.1877114 11.41126,1.6137454 24.85779,4.4093432 35.20669,7.3196262 3.33857,0.938861 7.34485,2.035076 8.90285,2.43602 15.17206,3.904519 47.04897,17.725867 64.48927,27.961546 8.517,4.998647 22.5885,14.070854 26.5625,17.125565 3.8104,2.928841 3.8669,2.97155 7.2842,5.502596 4.6988,3.480275 12.8176,10.098535 13.7589,11.215923 0.4452,0.52844 4.4583,4.226276 8.9181,8.217413 4.46,3.99112 9.7217,9.077629 11.693,11.30334 1.9711,2.225708 5.8448,6.414098 8.608,9.307518 16.5476,17.32721 41.1338,54.63713 49.8178,75.59922 1.2738,3.07479 2.6298,5.98844 3.0132,6.4748 0.3835,0.48636 1.1564,2.34111 1.7176,4.12168 0.5612,1.78057 1.2924,3.60161 1.6251,4.04675 0.3326,0.44514 0.872,1.71987 1.1985,2.83272 0.3266,1.11286 1.0696,3.116 1.6511,4.45142 1.7837,4.09626 8.0351,23.7295 7.7919,24.47156 -0.034,0.10509 0.4533,1.65297 1.0837,3.43973 0.6304,1.78677 0.9964,3.24866 0.8133,3.24866 -0.1831,0 0.1811,1.45683 0.8093,3.2374 0.6282,1.78057 0.9925,3.2374 0.8094,3.2374 -0.1831,0 0.2012,1.51364 0.8538,3.36365 0.6528,1.85 1.0341,3.51635 0.8475,3.70299 -0.1866,0.18664 0,1.4956 0.408,2.90881 0.411,1.4132 0.946,4.18757 1.1887,6.16526 0.2428,1.9777 0.6156,3.87765 0.8285,4.22214 0.213,0.34448 0.584,3.08704 0.8245,6.09458 0.2405,3.00755 0.6184,5.76104 0.8395,6.11889 0.2212,0.35786 0.9159,7.65182 1.5439,16.2088 0.9535,12.99284 1.1293,62.79928 1.0667,302.06781 -0.041,157.58032 -0.3862,290.15172 -0.7667,294.60314 -0.3804,4.45143 -0.8758,10.74897 -1.1009,13.99463 -0.225,3.24557 -0.6047,6.21774 -0.8439,6.60469 -0.2391,0.38695 -0.4676,2.28398 -0.5076,4.21574 -0.04,1.93167 -0.3893,4.60479 -0.7762,5.94022 -0.3868,1.33543 -0.9055,4.20352 -1.1529,6.37354 -0.2472,2.16995 -0.589,4.17309 -0.7596,4.45143 -0.1704,0.27825 -0.5192,1.78065 -0.7751,3.33864 -0.2558,1.558 -0.8147,4.02312 -1.2418,5.47808 -0.4272,1.45497 -0.7726,2.82682 -0.7675,3.0485 0.047,2.08529 -4.059,16.60615 -7.8396,27.72272 -8.2792,24.34418 -19.8222,48.51968 -32.0879,67.20458 -2.14,3.26 -3.891,6.0659 -3.891,6.2355 0,0.295 -5.0548,7.3212 -10.6948,14.8659 -9.8495,13.1756 -31.5371,35.9571 -46.3756,48.7149 -34.8322,29.948 -78.16374,52.5185 -121.79576,63.4409 -4.674,1.17 -9.7729,2.4563 -11.3309,2.8586 -1.55799,0.4022 -4.10744,0.9593 -5.66544,1.2379 -1.558,0.2787 -4.65376,0.8338 -6.87947,1.2336 -3.88585,0.6981 -16.14919,2.4725 -25.4945,3.689 -6.09003,0.7928 -609.33339,1.0601 -615.91494,0.273 z m 554.80906,-104.1229 c 2.67085,-0.5017 7.76975,-1.3298 11.33089,-1.8403 18.82571,-2.6987 40.3141,-8.5497 59.48718,-16.1973 9.16361,-3.6551 28.21642,-12.9402 33.77423,-16.4593 1.88303,-1.1924 3.64296,-2.1679 3.91093,-2.1679 0.97851,0 21.9927,-14.6624 28.66716,-20.0022 18.21068,-14.5691 39.58976,-37.28005 52.78806,-56.07662 10.2857,-14.64858 23.6788,-39.56027 29.3709,-54.63116 3.8965,-10.3167 9.4393,-27.56272 9.4945,-29.54125 0.01,-0.22257 0.358,-1.31519 0.7818,-2.42805 0.4238,-1.11286 1.1016,-3.66231 1.5063,-5.66545 0.4046,-2.00313 1.2442,-6.00941 1.8657,-8.90284 0.6216,-2.89342 1.5682,-8.53863 2.1038,-12.54491 0.5354,-4.00628 1.3086,-9.72126 1.7181,-12.69999 0.4388,-3.19183 0.7416,-99.73808 0.7374,-235.11592 -0.01,-243.85579 0.1214,-234.81096 -3.6676,-257.41458 -6.292,-37.53432 -23.8341,-78.43412 -47.2996,-110.27966 -12.0135,-16.30384 -31.74462,-37.31536 -45.33829,-48.28035 -5.58856,-4.50788 -21.8152,-16.36716 -25.52963,-18.65843 -22.02142,-13.58387 -44.18084,-24.05413 -63.4988,-30.00302 -8.47356,-2.60941 -16.43764,-4.8636 -18.61503,-5.26889 -1.11286,-0.20715 -4.75493,-0.93661 -8.09349,-1.62104 -6.05944,-1.24221 -10.48723,-1.99211 -23.47114,-3.97509 -10.1303,-1.54716 -470.25795,-1.54559 -481.56294,0.002 -38.63324,5.28743 -69.90455,15.58902 -100.76399,33.19424 -52.91809,30.18961 -93.92289,77.35446 -116.01092,133.43897 -2.29766,5.83392 -4.17746,11.11859 -4.17746,11.74373 0,0.62512 -0.3065,1.48259 -0.68106,1.90547 -1.62688,1.83661 -7.45225,24.52201 -9.94513,38.7286 -4.01769,22.89644 -3.93886,17.73189 -3.91474,256.64344 0.013,124.8587 0.33896,225.87912 0.73991,229.04586 0.39456,3.116 0.94856,8.03279 1.2311,10.92622 0.4237,4.33908 2.3115,16.94057 3.27358,21.85243 5.83411,29.78446 21.90682,68.82634 37.98406,92.26591 13.37312,19.49714 20.8027,28.52996 35.61784,43.30407 32.56239,32.47191 67.95969,53.38551 114.15597,67.44601 10.21618,3.1095 28.73878,6.9928 37.63475,7.8903 2.44828,0.2469 4.99182,0.6265 5.65241,0.8435 0.66059,0.2169 5.9416,0.6033 11.73557,0.8587 5.79397,0.2553 10.69903,0.6111 10.90015,0.7905 0.20104,0.1793 101.81485,0.2092 225.80847,0.066 162.80426,-0.1876 226.79223,-0.5132 230.29906,-1.1717 z M 369.166,1007.7022 c -13.96015,-1.3606 -18.97892,-2.238 -31.9693,-5.5884 -20.75423,-5.35284 -41.20066,-14.38615 -58.67783,-25.92407 -13.39352,-8.84198 -20.12997,-14.38999 -32.39898,-26.68336 -15.93706,-15.96862 -27.34063,-31.88747 -37.13886,-51.84424 -7.66211,-15.60596 -13.44458,-32.51448 -16.60712,-48.56096 -3.85792,-19.57501 -3.69281,-8.46871 -3.69281,-248.47023 0,-240.98614 -0.16244,-230.23308 3.77674,-250.08895 10.31362,-51.98678 41.47357,-98.01016 86.06208,-127.11378 8.34245,-5.44524 29.07798,-16.39842 33.58695,-17.74168 1.11285,-0.33154 3.11599,-1.07857 4.45142,-1.66007 8.19871,-3.57011 24.831,-8.08173 37.23007,-10.09891 3.11599,-0.50694 7.63823,-1.25943 10.04945,-1.67221 6.25724,-1.07115 460.04882,-1.00074 466.99578,0.0724 13.64992,2.10873 17.26763,2.80398 25.83913,4.96587 9.4205,2.37602 19.69964,5.62014 24.00214,7.57514 1.33543,0.6068 4.74028,2.05627 7.56637,3.22105 7.88403,3.24946 19.71623,9.7279 28.85435,15.79858 31.05077,20.62774 57.55437,51.74177 71.69144,84.16271 3.21983,7.38403 8.69435,21.75172 9.25167,24.28048 0.14714,0.66771 1.23564,5.00527 2.41891,9.63903 2.3502,9.20405 3.5725,15.49144 4.1049,21.11624 0.1897,2.00314 0.6814,6.19153 1.0928,9.30752 0.4408,3.33836 0.7738,96.25584 0.8107,226.21314 0.054,192.09377 -0.096,221.95735 -1.1653,231.47392 -1.2477,11.10249 -2.3447,18.27454 -3.2144,21.01459 -0.265,0.83484 -0.6147,2.20815 -0.7772,3.0519 -4.78227,24.83253 -20.26658,56.83129 -38.92524,80.44034 -5.44692,6.89209 -23.53151,24.97781 -30.21212,30.21398 -21.94251,17.1981 -49.15405,30.77939 -74.57426,37.21997 -14.63166,3.7072 -17.92482,4.2706 -35.73836,6.1151 -12.43878,1.288 -439.22353,0.8778 -452.69312,-0.4351 z M 620.81877,875.40024 c 21.61569,-2.39769 32.64364,-4.55938 53.47193,-10.48139 3.30077,-0.93852 18.03991,-6.29625 21.04308,-7.64933 1.33542,-0.60158 4.79539,-2.12389 7.68882,-3.38275 12.64746,-5.50261 32.17212,-16.96315 44.51421,-26.12871 20.54655,-15.25858 42.87909,-38.22665 56.76234,-58.37779 20.91586,-30.35842 36.21337,-68.04841 41.06227,-101.16866 0.48876,-3.33857 1.33534,-8.80168 1.88133,-12.14024 1.33688,-8.17463 1.32417,-48.33594 -0.0186,-57.46381 -2.12413,-14.44389 -4.74853,-27.46645 -7.58433,-37.63474 -1.85826,-6.6632 -6.85268,-21.61537 -8.38073,-25.08983 -0.58726,-1.33543 -2.04345,-4.79539 -3.23578,-7.68882 -8.28434,-20.10228 -24.48946,-45.62704 -40.33612,-63.53392 -33.3481,-37.68368 -73.56249,-63.09556 -121.62804,-76.858 -0.96596,-0.27659 -2.54298,-0.65439 -3.50432,-0.83954 -0.96143,-0.18514 -2.41826,-0.54935 -3.2374,-0.80935 -0.81922,-0.25999 -2.15586,-0.62052 -2.97047,-0.80119 -23.05294,-5.113 -27.92053,-5.59858 -56.51671,-5.63795 -17.10527,-0.0236 -27.75534,0.30161 -31.36576,0.95761 -3.00666,0.54628 -8.10556,1.41079 -11.33089,1.92112 -3.22542,0.51033 -7.59429,1.40951 -9.70872,1.99818 -2.11442,0.58868 -3.84441,0.91685 -3.84441,0.72929 0,-0.18756 -0.92929,0.0123 -2.06505,0.44409 -1.13568,0.43181 -3.13348,0.97336 -4.43952,1.20345 -4.91672,0.8662 -22.93874,6.95743 -33.55822,11.34228 -7.00063,2.8906 -21.32222,10.02724 -26.52051,13.21555 -3.01216,1.84771 -5.62838,3.35948 -5.81332,3.35948 -0.18501,0 -4.24196,2.6405 -9.01542,5.86778 -13.86318,9.37277 -16.97877,11.78588 -28.99696,22.45944 -21.76049,19.32585 -41.96201,45.82029 -55.44407,72.71525 -6.82282,13.61072 -15.35069,35.0642 -16.56552,41.67393 -0.17717,0.96385 -0.91837,3.79638 -1.64711,6.29452 -0.72874,2.49815 -1.48896,5.4118 -1.68952,6.47479 -0.3931,2.08381 -1.7503,8.28925 -2.81232,12.85895 -0.64587,2.77908 -1.80801,11.83799 -3.16666,24.68515 -1.14807,10.85546 -1.02116,27.63078 0.31475,41.59413 0.69806,7.2968 1.41345,13.50026 1.58973,13.78548 0.17627,0.28521 0.523,2.14556 0.7705,4.13411 0.74063,5.95096 1.98946,12.89909 2.45338,13.64967 0.239,0.38675 0.641,2.00216 0.89336,3.58979 0.49993,3.14574 5.29597,19.6967 6.84045,23.60614 0.52754,1.33543 1.07668,2.97436 1.22018,3.64207 0.69871,3.24978 6.02463,15.42431 11.68409,26.70853 7.52654,15.00695 13.67056,24.99738 23.20445,37.73148 23.78896,31.77416 54.33259,57.0786 90.24885,74.76838 15.03568,7.40555 39.34991,16.08226 52.11011,18.59594 2.22571,0.43842 6.4141,1.30572 9.30752,1.92722 5.38476,1.15672 14.3144,2.46487 25.08983,3.6755 8.74996,0.98303 34.66047,1.02909 43.24532,0.0769 z m -33.9378,-67.23957 c -28.26774,-1.68758 -57.33544,-10.97389 -81.74428,-26.11516 -4.20805,-2.61028 -17.50324,-11.82051 -18.21036,-12.61515 -0.22258,-0.25012 -2.95413,-2.62348 -6.07012,-5.27414 -25.08538,-21.3391 -46.37289,-54.46005 -54.64306,-85.0184 -2.85077,-10.53358 -3.8275,-14.88368 -5.8151,-25.89918 -1.40899,-7.80893 -1.39232,-42.4709 0.0243,-50.989 3.49291,-20.99908 8.21118,-36.11356 16.77247,-53.72851 11.9549,-24.5973 27.98156,-45.04402 47.70791,-60.86542 7.24732,-5.81273 17.01463,-12.87859 17.80237,-12.87859 0.28375,0 1.67535,-0.87727 3.09236,-1.94948 3.06395,-2.31838 22.45572,-11.98591 26.94567,-13.4334 1.73168,-0.55828 3.51281,-1.27148 3.95796,-1.58487 2.96667,-2.08863 24.93791,-7.54512 39.65811,-9.84895 8.4853,-1.32802 39.35882,-1.28943 47.34694,0.0592 17.61282,2.97356 33.45672,7.09683 42.89551,11.16327 16.82791,7.24989 26.48523,12.60481 39.65812,21.99011 33.7769,24.06518 58.40912,60.20237 69.01346,101.2476 1.85098,7.16441 2.48511,10.50369 4.62365,24.34678 0.45267,2.9299 0.82303,12.36945 0.82303,20.9768 0,8.60735 -0.37036,18.0469 -0.82303,20.97679 -3.24492,21.00488 -4.40666,25.76593 -10.20023,41.80199 -2.81289,7.78587 -8.1363,19.33398 -12.7347,27.62571 -9.19526,16.58054 -30.13572,40.76946 -44.22738,51.08834 -1.558,1.14087 -3.19693,2.46232 -3.64208,2.93655 -1.33745,1.42477 -14.07838,9.65859 -21.74284,14.05122 -10.11485,5.79702 -25.44951,12.05515 -39.76771,16.22937 -16.48741,4.80664 -39.51437,6.97138 -60.7012,5.70656 z m 281.24898,-426.0151 c 6.49292,-0.67903 14.97806,-5.10806 21.63431,-11.29264 9.43459,-8.76602 13.98281,-19.18602 13.96832,-32.00132 -0.0146,-12.60729 -4.08333,-22.54245 -12.80415,-31.26328 -9.02182,-9.0218 -18.29745,-12.86905 -30.89197,-12.81301 -8.5783,0.0382 -9.76197,0.23548 -16.37759,2.73011 -12.20046,4.60053 -21.47512,14.28242 -26.38366,27.54206 -1.73532,4.68766 -1.90148,22.44937 -0.24976,26.70853 6.82459,17.59886 19.89,28.62305 36.13154,30.48681 2.22571,0.25541 4.21509,0.61896 4.42074,0.80789 0.20574,0.18892 2.39098,0.0911 4.8561,-0.21735 2.4652,-0.30846 5.02841,-0.61797 5.69612,-0.6878 z"
     id="path50"
     inkscape:connector-curvature="0" />
  <path
     style="fill:#000000"
     d=""
     id="path48"
     inkscape:connector-curvature="0" />
</svg>
