<?xml version="1.0" encoding="UTF-8" standalone="no"?>
<!-- Created with Inkscape (http://www.inkscape.org/) -->

<svg
   xmlns:dc="http://purl.org/dc/elements/1.1/"
   xmlns:cc="http://creativecommons.org/ns#"
   xmlns:rdf="http://www.w3.org/1999/02/22-rdf-syntax-ns#"
   xmlns:svg="http://www.w3.org/2000/svg"
   xmlns="http://www.w3.org/2000/svg"
   xmlns:sodipodi="http://sodipodi.sourceforge.net/DTD/sodipodi-0.dtd"
   xmlns:inkscape="http://www.inkscape.org/namespaces/inkscape"
   version="1.1"
   id="svg10"
   width="1180"
   height="1180"
   viewBox="0 0 1180 1180"
   sodipodi:docname="logo-twitter1.svg"
   inkscape:version="0.92.4 (5da689c313, 2019-01-14)">
  <metadata
     id="metadata16">
    <rdf:RDF>
      <cc:Work
         rdf:about="">
        <dc:format>image/svg+xml</dc:format>
        <dc:type
           rdf:resource="http://purl.org/dc/dcmitype/StillImage" />
        <dc:title></dc:title>
      </cc:Work>
    </rdf:RDF>
  </metadata>
  <defs
     id="defs14" />
  <sodipodi:namedview
     pagecolor="#ffffff"
     bordercolor="#666666"
     borderopacity="1"
     objecttolerance="10"
     gridtolerance="10"
     guidetolerance="10"
     inkscape:pageopacity="0"
     inkscape:pageshadow="2"
     inkscape:window-width="1920"
     inkscape:window-height="1017"
     id="namedview12"
     showgrid="false"
     inkscape:zoom="0.44475665"
     inkscape:cx="662.66122"
     inkscape:cy="663.62293"
     inkscape:window-x="-8"
     inkscape:window-y="-8"
     inkscape:window-maximized="1"
     inkscape:current-layer="svg10"
     showborder="true" />
  <path
     style="fill:#00aced;fill-opacity:1;stroke-width:9.8530407"
     d="M 274.88325,1082.2913 C 200.68371,1072.5618 73.492627,1031.6395 31.968956,1004.1367 L 2.4098332,984.55806 61.528079,984.37796 c 91.034101,-0.2817 203.608841,-37.7887 275.760691,-91.88094 18.65489,-13.98544 17.72222,-15.01795 -19.70608,-21.8236 -73.23609,-13.31698 -128.4932,-51.82205 -175.71925,-122.44535 -22.17226,-33.15777 -20.46972,-42.86839 6.33619,-36.14024 12.44476,3.12337 35.72257,1.99301 51.72847,-2.512 l 29.10164,-8.18963 -41.95166,-17.22706 C 114.40723,654.31809 36.895478,548.57844 36.895478,479.28356 c 0,-13.42343 5.193735,-13.57216 45.904624,-1.32058 66.866808,20.12418 68.162018,18.36915 23.712838,-32.12762 C 41.7078,372.21317 19.616396,255.44155 57.205549,185.20574 c 10.188834,-19.03845 13.274708,-17.63959 61.715501,27.96156 97.67064,91.94595 201.06759,150.42412 319.54343,180.72547 40.99104,10.48402 88.74262,19.06115 106.11472,19.06115 h 31.5857 l 4.94819,-69.15868 c 6.45954,-90.28015 41.50415,-149.82451 113.64143,-193.08743 86.57443,-51.922253 186.57721,-49.63099 266.15165,6.098 50.50833,35.37232 59.74883,35.77389 132.72793,5.76218 31.1603,-12.81442 56.6549,-20.99231 56.6549,-18.17188 0,14.76357 -44.8239,74.32671 -72.1361,95.85524 -36.59,28.84221 -22.9543,31.82546 47.9411,10.48871 26.3494,-7.92975 49.5854,-12.74082 51.6353,-10.69068 2.0499,2.04937 -22.6801,29.59918 -54.9554,61.22033 l -58.6827,57.49263 -4.8802,83.75083 c -5.8441,100.29136 -40.8184,214.80539 -93.28732,305.44406 -52.71522,91.06529 -177.97417,213.09733 -265.91385,259.06407 -121.65816,63.5914 -288.67874,93.164 -425.12658,75.2723 z"
     id="path20"
     inkscape:connector-curvature="0" />
</svg>
