<?xml version="1.0" encoding="UTF-8" standalone="no"?>
<!-- Created with Inkscape (http://www.inkscape.org/) -->

<svg
   xmlns:dc="http://purl.org/dc/elements/1.1/"
   xmlns:cc="http://creativecommons.org/ns#"
   xmlns:rdf="http://www.w3.org/1999/02/22-rdf-syntax-ns#"
   xmlns:svg="http://www.w3.org/2000/svg"
   xmlns="http://www.w3.org/2000/svg"
   xmlns:xlink="http://www.w3.org/1999/xlink"
   xmlns:sodipodi="http://sodipodi.sourceforge.net/DTD/sodipodi-0.dtd"
   xmlns:inkscape="http://www.inkscape.org/namespaces/inkscape"
   version="1.1"
   id="svg10"
   width="590"
   height="872"
   viewBox="0 0 590 872"
   sodipodi:docname="MAD_Lionslogo_profile.svg"
   inkscape:version="0.92.4 (5da689c313, 2019-01-14)">
  <metadata
     id="metadata16">
    <rdf:RDF>
      <cc:Work
         rdf:about="">
        <dc:format>image/svg+xml</dc:format>
        <dc:type
           rdf:resource="http://purl.org/dc/dcmitype/StillImage" />
        <dc:title></dc:title>
      </cc:Work>
    </rdf:RDF>
  </metadata>
  <defs
     id="defs14">
    <linearGradient
       inkscape:collect="always"
       id="linearGradient1207">
      <stop
         style="stop-color:#be8e31;stop-opacity:1"
         offset="0"
         id="stop1203" />
      <stop
         style="stop-color:#edd071;stop-opacity:1"
         offset="1"
         id="stop1205" />
    </linearGradient>
    <linearGradient
       inkscape:collect="always"
       xlink:href="#linearGradient1207"
       id="linearGradient1209"
       x1="-346.98639"
       y1="796.38464"
       x2="-761.79846"
       y2="242.22772"
       gradientUnits="userSpaceOnUse"
       gradientTransform="translate(917.87115,73.367251)" />
  </defs>
  <sodipodi:namedview
     pagecolor="#ffffff"
     bordercolor="#666666"
     borderopacity="1"
     objecttolerance="10"
     gridtolerance="10"
     guidetolerance="10"
     inkscape:pageopacity="0"
     inkscape:pageshadow="2"
     inkscape:window-width="1920"
     inkscape:window-height="1017"
     id="namedview12"
     showgrid="false"
     inkscape:zoom="0.6406128"
     inkscape:cx="-57.078683"
     inkscape:cy="485.16964"
     inkscape:window-x="-8"
     inkscape:window-y="-8"
     inkscape:window-maximized="1"
     inkscape:current-layer="svg10" />
  <path
     style="fill:url(#linearGradient1209);fill-opacity:1;stroke:none"
     d="m 204.16942,869.92574 c -11.7903,-2.63714 -18.47009,-8.17805 -22.4238,-18.60064 l -2.44476,-6.44476 v -47 -47 l 2.3811,-6 c 3.36832,-8.48767 9.68895,-14.42092 18.41351,-17.28499 6.38558,-2.09624 8.42972,-2.21501 38.12105,-2.21501 28.94958,0 31.89393,0.16069 38.1071,2.07974 8.67756,2.68023 15.21728,8.55002 18.58505,16.6812 2.36367,5.70686 2.37882,5.99157 2.70034,50.73906 0.34031,47.36238 0.0315,51.86522 -4.14538,60.44001 -2.84766,5.84604 -10.07089,11.7747 -16.78745,13.77876 -7.50933,2.24061 -63.33937,2.87711 -72.50676,0.82663 z m 51.213,-35.98653 c 1.15868,-1.58564 1.41844,-8.16403 1.41844,-35.92126 0,-30.21554 -0.18335,-34.18273 -1.65499,-35.80887 -1.46584,-1.61974 -3.40222,-1.82874 -16.94329,-1.82874 -14.66489,0 -15.35179,0.0906 -16.84502,2.22251 -1.33192,1.90158 -1.5567,6.94609 -1.5567,34.9349 0,18.14622 0.42129,33.82046 0.94612,35.20088 1.22373,3.21865 2.827,3.49166 19.38544,3.30098 12.43264,-0.14316 13.97501,-0.35559 15.25,-2.1004 z m 230.787,35.98608 c -14.33694,-3.2057 -21.71109,-11.36324 -24.44056,-27.037 -2.00721,-11.52623 -3.3933,-10.57861 19.822,-13.55157 l 20.25,-2.59322 v 2.74699 c 0,3.52004 2.15508,5.64072 6.57483,6.46987 5.11874,0.96028 28.2357,0.009 29.45674,-1.21159 1.42749,-1.42749 2.34935,-7.71458 1.58041,-10.77831 -0.8103,-3.22847 -2.15122,-3.57245 -31.61198,-8.10945 -32.07818,-4.94008 -38.96273,-8.3555 -43.87876,-21.76818 -1.85789,-5.069 -2.12124,-7.9424 -2.12124,-23.14467 0,-14.75391 0.31192,-18.36703 2.07974,-24.09058 2.68222,-8.68402 8.61451,-15.29551 16.71572,-18.62955 5.61347,-2.31021 6.26328,-2.34769 40.70454,-2.34769 34.44927,0 35.07868,0.0363 40,2.30866 11.1025,5.12637 17.13981,14.69381 18.22851,28.88709 0.64849,8.45415 2.81217,7.33022 -18.72851,9.72851 -7.975,0.88792 -16.1875,1.88958 -18.25,2.22591 -3.64944,0.59512 -3.75,0.52947 -3.75,-2.4479 0,-5.67493 -1.52331,-6.20227 -17.91644,-6.20227 -17.46676,0 -18.41418,0.45728 -17.89268,8.63616 0.40574,6.36341 1.26198,6.73168 21.65521,9.3139 28.40011,3.59607 38.74573,6.28835 45.90237,11.94534 7.45026,5.88909 9.40072,11.75746 10.0058,30.1046 0.99894,30.28959 -4.63852,43.2469 -21.1891,48.70169 -6.97743,2.29964 -63.75769,2.95378 -73.1966,0.84326 z m -65.21237,-1.54495 -18.3438,-0.5 -8.8565,-14.5 c -4.87108,-7.975 -9.48315,-15.625 -10.24906,-17 -0.76591,-1.375 -3.77889,-6.325 -6.69551,-11 -2.91662,-4.675 -7.82483,-12.74316 -10.90713,-17.92924 l -5.60419,-9.42925 -0.26279,35.17925 -0.2628,35.17924 h -20.44405 -20.44405 l -0.29316,-61.25 -0.29315,-61.25 -2.75,-5.59967 c -1.5125,-3.07982 -2.75,-7.24232 -2.75,-9.25 v -3.65033 h 22.38499 22.38499 l 1.82683,2.75 c 2.51214,3.78161 14.04388,22.64766 17.57324,28.75 1.5905,2.75 6.08082,10.175 9.97851,16.5 3.89768,6.325 8.8258,14.425 10.95137,18 l 3.86468,6.5 0.0177,-36.25 0.0177,-36.25 h 20.50671 20.50671 l -0.25671,70.65474 c -0.22517,61.97368 -0.44101,70.66644 -1.75671,70.75 -0.825,0.0524 -9.75471,-0.12974 -19.84381,-0.40474 z m -415.1561946,-70.5 v -70.5 h 23.4999996 23.5 v 3.87405 c 0,2.37751 -1.06231,5.75761 -2.75,8.75 l -2.75,4.87595 -0.2889,44.75 -0.2889,44.75 h 23.5389 23.5389 v 17 17 h -44 -43.9999996 z m 107.7717246,7.08317 -0.27172,-63.41682 -2.25,-3.04268 c -1.46006,-1.97445 -2.25,-4.46124 -2.25,-7.08318 v -4.04049 h 23.5 23.5 v 70.5 70.5 h -20.97828 -20.97829 z m 65.22828,-149.58317 v -38.09981 l 5.75,0.29991 5.75,0.2999 7,10.59247 c 3.85,5.82585 9.21931,14.06235 11.93179,18.30333 2.71249,4.24098 5.26018,7.91383 5.66155,8.16189 0.40137,0.24806 2.18362,-1.91182 3.96057,-4.79973 1.77695,-2.88791 7.27258,-11.43987 12.21251,-19.00436 l 8.98169,-13.7536 h 5.88797 5.88797 l -0.26202,37.75 -0.26203,37.75 -5.75,0.2999 -5.75,0.29991 v -28.25899 -28.25899 l -4.7565,7.45909 c -14.72117,23.08553 -17.59092,26.95908 -19.97285,26.95908 -1.9407,0 -4.27621,-2.92885 -13.29605,-16.67392 l -10.94182,-16.67392 -0.26639,27.42392 -0.26639,27.42392 -5.75,0.2999 -5.75,0.29991 z m 88.59866,37.15963 c -0.28566,-0.4622 0.77787,-4.3997 2.3634,-8.75 1.58553,-4.3503 4.73231,-13.08463 6.99284,-19.40963 6.7971,-19.01839 9.68884,-27.02688 13.36015,-37 l 3.49714,-9.5 7.84624,-0.28644 7.84625,-0.28644 1.85507,5.28644 c 7.66338,21.83843 17.40379,48.99079 20.72982,57.78644 1.55984,4.125 3.13264,8.76159 3.4951,10.30354 l 0.65902,2.80354 -5.84284,-0.30354 -5.84284,-0.30354 -1.70997,-4.5 c -0.94049,-2.475 -2.69591,-7.3125 -3.90094,-10.75 l -2.19095,-6.25 h -15.15638 -15.15637 l -3.37914,9.75 c -1.85853,5.3625 -3.8134,10.3125 -4.34415,11 -1.07529,1.39287 -10.3037,1.73278 -11.12145,0.40963 z m 45.40134,-31.64911 c 0,-0.26921 -1.07046,-3.30671 -2.37879,-6.75 -1.30833,-3.44329 -3.87393,-10.41502 -5.70133,-15.49274 l -3.32254,-9.23223 -2.85929,7.73223 c -1.57261,4.25272 -4.12463,11.44472 -5.67116,15.98222 l -2.81188,8.25 h 11.3725 c 6.25487,0 11.37249,-0.22027 11.37249,-0.48948 z m 39,-5.51052 v -38 l 19.75,0.0193 c 25.19115,0.0246 29.42002,1.00855 34.30018,7.98071 2.41303,3.44745 2.45456,3.86688 2.76573,27.93316 0.35067,27.12191 -0.24492,30.72571 -5.85856,35.44928 -4.33171,3.64487 -11.07379,4.61755 -32.00657,4.61755 h -18.95078 z m 43.09063,24.13922 c 1.75294,-2.16738 1.90676,-4.17459 1.87757,-24.5 -0.0342,-23.83279 -0.19598,-24.63472 -5.36479,-26.59991 -1.50349,-0.57162 -8.55431,-1.03931 -15.66851,-1.03931 h -12.9349 v 27.57205 27.57204 l 15.09063,-0.32204 c 14.46494,-0.3087 15.1698,-0.41993 17,-2.68283 z m -297.090635,-23.63922 -2.34863,-2.5 2.34863,-2.5 2.348635,-2.5 h 27.82568 27.82569 v 5 5 h -27.82569 -27.82568 z m 333.000005,-2.5 v -5 h 27.82569 27.82568 l 2.34863,2.5 2.34863,2.5 -2.34863,2.5 -2.34863,2.5 H 458.62655 430.80086 Z M 252.41471,571.66085 c -0.3496,-0.34959 -0.35835,-2.72585 -0.0195,-5.28058 0.57736,-4.35237 0.40954,-4.81883 -2.66421,-7.40521 -2.62314,-2.20723 -2.99485,-2.94096 -1.85528,-3.66218 0.7838,-0.49605 2.64485,-0.90881 4.13566,-0.91723 2.97159,-0.0168 3.89631,-0.81091 6.96582,-5.98203 l 2.05781,-3.46672 2.02038,3.96672 c 2.35333,4.6204 3.34623,5.42508 6.74542,5.46672 5.0388,0.0617 5.57765,1.55392 1.7688,4.89814 -3.44799,3.02737 -3.50542,3.19997 -2.55204,7.67008 0.53643,2.51516 0.74619,4.80217 0.46612,5.08223 -0.28007,0.28007 -2.34829,-0.53921 -4.59605,-1.82062 l -4.08678,-2.32983 -3.87526,2.20807 c -2.1314,1.21444 -4.1613,1.92204 -4.51089,1.57244 z m 32.73692,-3.82302 c 0.61579,-4.49264 0.43639,-5.08187 -2.45564,-8.06569 -3.65186,-3.76776 -3.13668,-5.3918 1.7104,-5.3918 2.85786,0 3.79504,-0.55514 5.19098,-3.07487 3.61221,-6.5202 3.93626,-6.73383 5.19839,-3.42696 1.6552,4.33675 3.94853,6.49967 6.91009,6.51714 1.42725,0.008 3.27001,0.46409 4.09501,1.01258 1.25063,0.83148 0.94,1.46415 -1.86847,3.80562 -3.26693,2.72369 -3.34685,2.96551 -2.65136,8.02234 l 0.71711,5.214 -4.5842,-2.22718 -4.58421,-2.22718 -4.17121,2.34435 -4.1712,2.34435 z m 32.15999,-0.69734 c 0.66265,-5.30362 0.58796,-5.53793 -2.54739,-7.99172 -3.74944,-2.93438 -3.23541,-4.76176 1.34565,-4.78374 4.01256,-0.0193 4.78255,-0.60132 6.9248,-5.23469 0.9536,-2.0625 2.14224,-3.75 2.64142,-3.75 0.49918,0 1.6044,1.74147 2.45604,3.86993 1.60523,4.01186 3.17277,5.13007 7.19149,5.13007 3.69588,0 3.96236,1.89379 0.75089,5.33641 -2.7139,2.90924 -2.88536,3.52031 -2.13265,7.6005 0.45018,2.44029 0.6322,4.62321 0.40449,4.85093 -0.22772,0.22771 -2.24407,-0.61452 -4.4808,-1.87163 -4.06222,-2.2831 -4.07095,-2.28352 -7.81573,-0.37702 -2.06193,1.04975 -4.12515,2.08327 -4.58492,2.2967 -0.45977,0.21344 -0.52875,-2.07064 -0.15329,-5.07574 z M 200.80086,562.07904 C 166.47889,547.61997 142.13726,531.80848 117.1666,507.7531 91.661725,483.18308 69.641125,449.76513 57.615875,417.38034 c -11.70782,-31.52993 -16.12929,-56.04582 -16.14145,-89.5 -0.0118,-32.47881 4.2335,-56.95924 15.0005,-86.5 19.26386,-52.85312 57.319905,-99.30556 105.325935,-128.56423 8.98259,-5.47471 24.01856,-13.435785 25.37596,-13.435785 0.34322,0 0.62404,9.178425 0.62404,20.396495 v 20.3965 l -7.75,4.82666 c -54.17334,33.73892 -92.150425,92.20837 -99.849575,153.72826 -1.94622,15.55119 -2.07529,38.70145 -0.30472,54.6521 l 1.38754,12.5 0.64257,-14 c 0.37946,-8.26759 1.75112,-19.93714 3.34993,-28.5 6.81372,-36.49271 21.091375,-67.04763 45.024255,-96.35431 3.85,-4.71446 7.32167,-8.58838 7.71482,-8.60872 0.39315,-0.0203 1.18545,0.84242 1.76067,1.91723 0.80238,1.49927 0.47664,3.41988 -1.39921,8.25 -10.09559,25.99508 -9.73797,24.74683 -9.76754,34.09233 -0.026,8.22703 0.23874,9.41495 3.62643,16.26947 l 3.65452,7.39442 -3.19805,7.26979 c -4.57147,10.39186 -9.61186,27.38498 -11.61149,39.1469 -2.39074,14.06244 -2.36245,43.34152 0.0556,57.59576 0.97715,5.76009 1.91084,10.60709 2.07488,10.77113 0.16404,0.16404 0.605,-3.42375 0.9799,-7.97287 2.02843,-24.61289 8.28806,-46.80071 18.98528,-67.29495 6.38713,-12.23677 13.07614,-22.18239 14.6334,-21.75782 0.44049,0.1201 4.67756,3.10865 9.4157,6.64122 4.73813,3.53257 9.5257,7.03431 10.63904,7.78164 2.01608,1.35329 2.01202,1.40522 -1.0039,12.85878 -1.66548,6.325 -4.62828,16.675 -6.584,23 -1.95571,6.325 -4.39182,14.26245 -5.41358,17.63878 -3.06895,10.14119 -4.4417,29.42938 -3.10649,43.64853 1.12403,11.97013 4.53616,27.71269 6.00661,27.71269 0.40894,0 0.99518,-4.21819 1.30277,-9.37375 0.56388,-9.45147 3.25956,-21.0193 6.85019,-29.39591 l 1.94773,-4.54386 2.72187,2.60772 c 3.10139,2.97132 12.73673,7.55572 22.53029,10.71969 3.66903,1.18534 6.89363,2.51544 7.16577,2.95577 0.95147,1.53952 -1.81869,7.58353 -6.43056,14.03034 -10.37903,14.50858 -18.19179,32.99067 -20.07837,47.49799 -1.21079,9.31062 -1.1746,27.32826 0.0722,35.95534 1.86802,12.9254 9.96268,33.11939 17.53958,43.75651 3.58004,5.02598 3.42988,6.17987 -0.58412,4.48886 z m 182,0.264 c 0,-0.50813 1.51415,-3.2951 3.36478,-6.19328 5.74849,-9.00246 9.8012,-17.84054 13.42148,-29.26942 3.23533,-10.2136 3.519,-12.16584 3.96789,-27.30748 0.31536,-10.63764 0.0625,-18.46051 -0.7273,-22.5 -3.25284,-16.63717 -11.61242,-35.86398 -20.94503,-48.17301 -3.81981,-5.03804 -6.48697,-11.05495 -5.56307,-12.54985 0.27214,-0.44033 3.49674,-1.77043 7.16577,-2.95577 9.66392,-3.12209 19.4164,-7.73639 22.40724,-10.6018 2.05524,-1.96905 2.81778,-2.22025 3.6456,-1.20096 1.97853,2.43614 7.32839,23.29761 8.24658,32.15706 0.50551,4.8775 1.09437,9.04345 1.30859,9.25767 0.55647,0.55647 4.47312,-14.18401 5.34758,-20.12586 0.40472,-2.75 0.70513,-12.2 0.66758,-21 -0.0772,-18.08354 -0.51356,-20.45961 -8.69622,-47.34772 -6.68294,-21.96006 -10.02091,-34.08978 -9.50656,-34.54545 4.90907,-4.349 22.40374,-16.4801 22.93346,-15.90244 3.17781,3.46537 10.8074,16.26418 15.78375,26.47761 9.76965,20.05113 14.28407,37.19322 16.80666,63.818 0.65879,6.95326 0.77711,7.24802 1.62301,4.0435 3.367,-12.75522 4.40722,-41.03865 2.19768,-59.75485 -1.40255,-11.88054 -6.95028,-32.95182 -11.01579,-41.83992 -4.82838,-10.55593 -4.79727,-9.9341 -0.89226,-17.83537 5.59661,-11.32396 5.70316,-19.51949 0.43051,-33.11336 -7.93968,-20.46998 -8.93882,-23.69336 -7.92898,-25.58025 0.56508,-1.05586 1.34908,-1.90311 1.74223,-1.88278 0.91087,0.0471 12.90243,14.74136 17.92342,21.96303 23.55636,33.88109 35.88717,70.04552 38.0176,111.5 0.72337,14.07569 1.40482,13.11169 2.82759,-4 3.41546,-41.07776 -3.86651,-80.21559 -21.52423,-115.68457 -17.23092,-34.61168 -45.24338,-65.64272 -77.77956,-86.16094 l -9.25,-5.83331 v -20.41059 c 0,-11.22583 0.24842,-20.410605 0.55205,-20.410605 2.76285,0 27.87487,14.385515 38.94795,22.311485 59.13443,42.32765 96.185,103.95075 105.09994,174.80387 6.16903,49.02953 -2.97414,101.56952 -25.30028,145.38466 -24.39132,47.86805 -65.88525,88.74428 -113.29966,111.613 -12.8707,6.20774 -22,9.88008 -22,8.8497 z M 236.29595,538.26549 c 0.64791,-5.18615 0.55881,-5.4694 -2.41116,-7.66509 -4.03302,-2.98159 -4.04082,-5.22006 -0.0182,-5.22006 4.22128,0 6.43874,-1.38949 7.91843,-4.96178 0.69216,-1.67102 1.82428,-3.03822 2.51583,-3.03822 0.69155,0 1.82367,1.3672 2.51583,3.03822 1.47969,3.57229 3.69715,4.96178 7.91843,4.96178 3.96418,0 4.03014,2.22711 0.1509,5.09516 -2.76729,2.04594 -2.88573,2.43703 -2.33985,7.72605 l 0.57498,5.57102 -4.30708,-2.54359 -4.30708,-2.5436 -4.44191,2.48263 -4.4419,2.48263 z m 31.99696,-0.0232 c 0.6283,-5.07413 0.4987,-5.51965 -2.41406,-8.29907 -3.79392,-3.62025 -3.8612,-4.55902 -0.32799,-4.57656 4.93091,-0.0245 6.92689,-1.08557 8.58576,-4.56426 0.89754,-1.88212 2.09644,-3.42206 2.66424,-3.42206 0.5678,0 1.7667,1.53994 2.66424,3.42209 1.65887,3.47869 3.65485,4.53977 8.58576,4.56426 3.58233,0.0178 3.46804,0.92536 -0.61487,4.88267 -3.23934,3.1397 -3.32902,3.42944 -2.40395,7.76679 0.5285,2.47799 0.7653,4.70104 0.52623,4.94012 -0.23908,0.23907 -2.26827,-0.56967 -4.5093,-1.7972 l -4.07462,-2.23189 -3.83674,1.95049 c -2.11021,1.07277 -4.21293,2.12513 -4.6727,2.33856 -0.45977,0.21344 -0.53717,-2.02482 -0.172,-4.97391 z m 32.33618,4.63292 c -0.27996,-0.27996 -0.20428,-2.51701 0.16818,-4.97122 0.61211,-4.03335 0.40455,-4.72341 -2.15961,-7.18004 -3.4816,-3.33555 -3.63263,-5.34361 -0.4019,-5.34361 4.21545,0 7.20849,-1.72485 8.53025,-4.91587 1.62009,-3.91124 3.44274,-3.92781 5.05068,-0.0459 1.47969,3.57229 3.69715,4.96178 7.91843,4.96178 3.89526,0 3.8866,1.43841 -0.0285,4.73273 -2.96902,2.49827 -3.06658,2.8248 -2.41116,8.07059 l 0.68305,5.46698 -4.4419,-2.48263 -4.44191,-2.48263 -3.97831,2.34944 c -2.18807,1.29219 -4.20737,2.12038 -4.48733,1.84042 z m 32.69489,-4.83364 c 0.64986,-5.20128 0.5669,-5.46097 -2.42512,-7.59148 -3.89373,-2.77258 -4.05066,-5.06505 -0.348,-5.08343 4.62248,-0.023 7.15199,-1.10038 7.85158,-3.34432 0.3673,-1.17812 1.24736,-2.97991 1.95568,-4.00398 1.19296,-1.72474 1.43781,-1.56803 3.32271,2.12667 2.19257,4.2978 3.66127,5.23528 8.20182,5.23528 3.63383,0 3.70252,1.57192 0.22719,5.19938 -2.30476,2.40565 -2.65239,3.53668 -2.42189,7.87954 l 0.26913,5.07071 -4.00935,-2.30749 -4.00934,-2.30749 -4.64364,2.25606 -4.64365,2.25605 z m -51.84511,-54.16543 c -6.11578,-1.68094 -9.68454,-4.05567 -28.41925,-18.91077 -12.51803,-9.92577 -15.24281,-12.54264 -15.25,-14.64603 -0.008,-2.34899 1.9157,-3.50658 23.24124,-13.98521 21.9786,-10.79952 23.63704,-11.44422 30.32785,-11.78964 8.31669,-0.42935 11.32235,0.68714 39.42215,14.64386 13.64458,6.77703 17.56662,9.1588 17.80239,10.81099 0.24025,1.68357 -3.0737,4.80936 -16.12648,15.21085 -9.03588,7.2005 -18.04806,14.04716 -20.02706,15.2148 -7.99353,4.7163 -21.06737,6.17314 -30.97084,3.45115 z m -34.02302,-55.32457 c -2.17078,-2.39868 -2.11659,-3.337 0.95256,-16.4935 1.43415,-6.14777 2.89665,-13.39094 3.25,-16.09594 0.35335,-2.70499 1.13016,-5.08007 1.72626,-5.27793 1.06257,-0.35271 6.45395,15.50602 6.42884,18.91042 -0.0102,1.37995 2.46117,0.50224 12.67058,-4.5 12.49739,-6.12326 12.80141,-6.21278 20.75,-6.10961 7.71372,0.10012 8.59907,0.36332 20.22922,6.01389 l 12.16245,5.9092 0.97208,-3.5139 c 0.53465,-1.93264 1.80592,-6.55139 2.82506,-10.26389 1.01914,-3.7125 2.35745,-6.75 2.97401,-6.75 0.62254,0 1.68485,3.44622 2.38897,7.75 0.69736,4.2625 2.11102,11.47993 3.14146,16.03873 2.54056,11.23979 2.44706,13.56636 -0.61097,15.20297 -2.2964,1.229 -3.81762,0.69471 -20.09371,-7.05734 -17.18721,-8.186 -17.78071,-8.38473 -24.76551,-8.29262 -6.85022,0.0903 -7.86481,0.44218 -23.72236,8.22632 -9.11134,4.47257 -17.2541,8.13194 -18.09501,8.13194 -0.84092,0 -2.27369,-0.82293 -3.18393,-1.82874 z m -26.15499,-39.33623 c -17.08798,-6.50731 -20.61532,-8.16614 -22.52393,-10.59255 -2.67876,-3.4055 -2.51717,-5.66067 1.37142,-19.13935 11.34885,-39.33755 13.40729,-47.5337 12.53212,-49.8995 -0.83592,-2.25972 -1.67486,-2.94465 -21.87961,-17.86315 -33.05186,-24.40437 -32,-23.45152 -32,-28.98796 0,-1.76138 2.29324,-9.19875 5.09609,-16.5275 2.80285,-7.32874 5.33996,-14.22499 5.63803,-15.32499 0.29807,-1.1 1.45827,-3.0125 2.57823,-4.25 3.22079,-3.55883 7.50152,-2.95445 14.32764,2.02288 10.4564,7.62438 15.74563,10.54443 22.01262,12.15259 3.38394,0.86835 10.45149,3.09557 15.70567,4.94937 9.38732,3.31208 9.70837,3.53325 18.50417,12.74786 4.92311,5.15752 9.33055,9.00359 9.79433,8.54683 0.46377,-0.45676 0.99161,-6.38133 1.17298,-13.16571 0.34541,-12.92052 -1.22625,-24.73032 -4.25621,-31.98204 l -1.60487,-3.84099 -2.29879,2.15961 c -3.16743,2.97564 -4.92664,2.74558 -13.08458,-1.71113 -3.89692,-2.1289 -9.96515,-4.91374 -13.48495,-6.18855 -6.33956,-2.29607 -6.57422,-2.30654 -25,-1.11625 -23.83336,1.53962 -22.77436,1.59244 -25.64581,-1.27902 -3.94536,-3.94535 -3.88142,-4.19799 7.92099,-31.29545 6.65004,-15.268 8.83635,-19.76111 9.9718,-20.49312 1.2967,-0.83598 14.24995,-4.94181 32.15266,-10.19154 6.6,-1.93536 16.85312,-4.9555 22.78471,-6.71143 10.72299,-3.17432 10.79875,-3.18161 13.23868,-1.27326 1.34968,1.05564 6.08267,9.10921 10.51775,17.89682 11.44664,22.68024 19.82813,37.16402 24.45886,42.26654 l 4,4.40753 3.16236,-3.32577 c 4.60973,-4.84792 13.16353,-19.39721 24.12677,-41.03757 5.79852,-11.44572 10.56479,-19.62923 11.96801,-20.54865 2.53333,-1.65991 0.0179,-2.24527 36.24286,8.43389 25.99334,7.66286 29.59274,8.80939 31.62905,10.07491 1.19201,0.74081 3.1157,4.05816 4.37085,7.5374 1.23299,3.41783 2.59259,6.66424 3.02134,7.21424 0.42875,0.55001 1.90711,3.70001 3.28525,7.00001 1.37813,3.3 4.12295,9.80802 6.0996,14.46227 4.2465,9.99887 4.41528,12.30727 1.13936,15.58318 -2.87145,2.87146 -1.81245,2.81864 -25.64581,1.27902 -18.42578,-1.19029 -18.66044,-1.17982 -25,1.11625 -3.5198,1.27481 -9.58803,4.05965 -13.48495,6.18855 -8.12227,4.43722 -9.92135,4.68283 -13.01475,1.77673 l -2.22896,-2.094 -1.24607,2.32831 c -2.74265,5.12469 -4.92399,18.38807 -4.94859,30.0893 -0.0247,11.77368 0.57515,16.77039 2.01345,16.77039 0.42512,0 4.60876,-4.07693 9.29697,-9.05984 l 8.52401,-9.05984 11.34463,-3.98539 c 6.23954,-2.19197 13.36962,-4.44137 15.84462,-4.99868 4.64405,-1.04573 10.21562,-4.22649 20.36001,-11.62337 9.79716,-7.14369 14.35947,-5.60353 18.44612,6.22712 1.13991,3.3 3.66851,10.275 5.61911,15.5 3.71505,9.95138 4.28115,13.81157 2.51065,17.1198 -0.87104,1.62754 -30.57331,24.33467 -47.62838,36.41147 -6.10373,4.3221 -6.7054,6.26775 -4.4174,14.28487 1.04913,3.67612 3.54658,12.53386 5.54989,19.68386 2.00331,7.15 5.04179,17.8276 6.75216,23.728 3.47703,11.99492 3.24477,15.61003 -1.21691,18.94115 -1.37954,1.02998 -8.75794,4.15558 -16.39643,6.94577 l -13.88817,5.07308 -14.59532,-6.7768 c -33.25314,-15.43985 -38.81762,-18.24512 -39.44771,-19.88709 -0.36352,-0.94732 -1.1429,-6.04469 -1.73197,-11.32748 l -1.07103,-9.60509 6.32769,-6.10302 c 3.48023,-3.35667 12.51519,-11.4078 20.07769,-17.8914 8.72642,-7.48147 13.75,-12.48414 13.75,-13.69275 0,-3.35915 -3.77929,-6.18342 -7.34897,-5.4919 -6.30251,1.22093 -56.2566,1.77209 -67.65103,0.74642 -9.65292,-0.86891 -11.86139,-0.80049 -13.75,0.42602 -4.0343,2.61996 -2.88953,5.69317 4.5,12.08053 3.7125,3.20901 6.975,6.06043 7.25,6.33649 0.275,0.27606 5,4.39739 10.5,9.15851 5.5,4.76112 11.31101,10.0366 12.91335,11.72329 l 2.91334,3.0667 -1.15912,9.43199 c -0.63752,5.18759 -1.43895,10.16121 -1.78096,11.05248 -0.34201,0.89127 -4.50642,3.47916 -9.25423,5.75086 -21.90362,10.48032 -44.57235,20.80878 -45.55266,20.75499 -0.59384,-0.0326 -4.67972,-1.43017 -9.07972,-3.10575 z m -3.5,-280.17335 V 93.703647 L 200.77795,57.360716 c -9.3626,-19.988612 -16.88017,-36.771149 -16.70571,-37.294527 0.17446,-0.523378 3.67227,1.964609 7.77291,5.528859 4.10064,3.56425 10.11907,8.166976 13.37428,10.228279 7.65713,4.848735 20.89604,10.655384 25.79061,11.311884 2.11177,0.283247 4.10873,0.95049 4.43769,1.482762 0.32896,0.532272 1.0055,4.609057 1.50342,9.059522 0.49791,4.450465 1.08292,8.269377 1.30002,8.486472 0.21709,0.217095 3.69208,-0.286253 7.7222,-1.118549 4.03012,-0.832297 10.07962,-1.823723 13.44334,-2.203168 l 6.11585,-0.6899 -3.29977,-8.136011 c -5.18594,-12.786598 -5.18851,-12.657989 0.32165,-16.106762 2.61053,-1.633913 6.91721,-4.989135 9.57041,-7.456049 5.14298,-4.781898 14.95886,-18.795778 18.08759,-25.8231976 1.04069,-2.3375 2.1621,-4.24999995 2.49201,-4.24999995 0.32991,0 1.72407,2.12497995 3.09813,4.72216995 7.58548,14.3378376 16.23729,24.5581826 26.5967,31.4185586 3.52087,2.33165 6.40158,4.599642 6.40158,5.039984 0,0.440342 -1.57179,4.967321 -3.49286,10.059953 -1.92107,5.092633 -3.49607,9.554605 -3.5,9.915494 -0.004,0.360889 2.35536,0.949251 5.24286,1.307471 2.8875,0.358219 8.77518,1.337763 13.08374,2.176763 4.30856,0.839001 8.00855,1.350646 8.22221,1.136991 0.21365,-0.213656 0.79585,-4.029755 1.29376,-8.48022 0.49792,-4.450465 1.17446,-8.52725 1.50342,-9.059522 0.32896,-0.532272 2.32592,-1.199515 4.43769,-1.482762 9.58208,-1.285228 30.12938,-12.870875 40.97029,-23.101211 2.8936,-2.730636 5.55019,-4.675701 5.90353,-4.322366 0.6973,0.697305 -17.90179,41.298828 -30.24366,66.021417 l -3.42098,6.852723 v 15.897276 c 0,10.9168 -0.3454,15.89728 -1.1025,15.89728 -0.60637,0 -5.1068,-1.34157 -10.00096,-2.98126 -18.21486,-6.10254 -43.2332,-9.97969 -64.39654,-9.97969 -21.23637,0 -47.26915,4.04681 -64.46221,10.02068 -4.65422,1.61715 -9.04172,2.94027 -9.75,2.94027 -0.99441,0 -1.28779,-3.4943 -1.28779,-15.33834 z"
     id="path1169"
     inkscape:connector-curvature="0" />
</svg>
