<?xml version="1.0" encoding="UTF-8" standalone="no"?>
<!-- Created with Inkscape (http://www.inkscape.org/) -->

<svg
   xmlns:dc="http://purl.org/dc/elements/1.1/"
   xmlns:cc="http://creativecommons.org/ns#"
   xmlns:rdf="http://www.w3.org/1999/02/22-rdf-syntax-ns#"
   xmlns:svg="http://www.w3.org/2000/svg"
   xmlns="http://www.w3.org/2000/svg"
   xmlns:xlink="http://www.w3.org/1999/xlink"
   xmlns:sodipodi="http://sodipodi.sourceforge.net/DTD/sodipodi-0.dtd"
   xmlns:inkscape="http://www.inkscape.org/namespaces/inkscape"
   version="1.1"
   id="svg5101"
   width="1180"
   height="1180"
   viewBox="0 0 1180 1180"
   sodipodi:docname="yt.svg"
   inkscape:version="0.92.4 (5da689c313, 2019-01-14)">
  <metadata
     id="metadata5107">
    <rdf:RDF>
      <cc:Work
         rdf:about="">
        <dc:format>image/svg+xml</dc:format>
        <dc:type
           rdf:resource="http://purl.org/dc/dcmitype/StillImage" />
        <dc:title />
      </cc:Work>
    </rdf:RDF>
  </metadata>
  <defs
     id="defs5105">
    <linearGradient
       inkscape:collect="always"
       id="linearGradient3077">
      <stop
         style="stop-color:#be8e31;stop-opacity:1"
         offset="0"
         id="stop3073" />
      <stop
         style="stop-color:#edd071;stop-opacity:1"
         offset="1"
         id="stop3075" />
    </linearGradient>
    <linearGradient
       inkscape:collect="always"
       xlink:href="#linearGradient3077"
       id="linearGradient3079"
       x1="719.68225"
       y1="784.35388"
       x2="393.85596"
       y2="299.19492"
       gradientUnits="userSpaceOnUse" />
  </defs>
  <sodipodi:namedview
     pagecolor="#ffffff"
     bordercolor="#666666"
     borderopacity="1"
     objecttolerance="10"
     gridtolerance="10"
     guidetolerance="10"
     inkscape:pageopacity="0"
     inkscape:pageshadow="2"
     inkscape:window-width="1920"
     inkscape:window-height="1017"
     id="namedview5103"
     showgrid="false"
     inkscape:zoom="0.55857988"
     inkscape:cx="442.6268"
     inkscape:cy="509.57751"
     inkscape:window-x="-8"
     inkscape:window-y="-8"
     inkscape:window-maximized="1"
     inkscape:current-layer="svg5101" />
  <path
     style="fill:url(#linearGradient3079);fill-opacity:1;stroke-width:0.97877598"
     d="M 524.74954,988.23707 C 337.43278,985.8939 200.32414,977.94731 144.15583,966.1784 121.50205,961.43183 102.71837,953.42741 85.062992,940.99685 74.371526,933.46938 58.710885,917.89842 51.206198,907.33401 44.702447,898.17862 36.102538,882.17192 32.394426,872.32044 24.182211,850.50255 15.887857,799.81932 10.928577,741.1519 -2.1696193,586.20242 5.3921303,383.45235 27.557315,295.29274 40.59931,243.41964 82.230982,200.37965 132.19754,187.11273 c 33.7615,-8.96422 113.96295,-16.07662 225.18127,-19.96945 15.61148,-0.54643 34.771,-1.22891 42.57675,-1.51664 69.41839,-2.55886 234.99799,-3.34073 321.03857,-1.51596 165.26428,3.50496 272.33656,10.52803 323.48547,21.21803 31.1142,6.50277 56.1041,19.75486 77.3214,41.00322 14.5025,14.52371 26.0236,31.98806 33.3908,50.6162 7.4326,18.79339 14.2514,54.13704 20.1617,104.50357 l 2.2398,19.08614 v 172.75397 172.75398 l -2.2593,20.55429 c -4.6148,41.98553 -9.2908,70.89971 -14.8786,92.00497 -7.074,26.71745 -19.3851,48.22184 -38.6544,67.5193 -20.8553,20.8859 -46.7325,34.75379 -75.8492,40.64837 -55.5365,11.24329 -192.67413,19.24283 -360.19361,21.011 -27.1855,0.28697 -61.1001,0.67437 -75.36576,0.86102 -14.26565,0.18656 -52.80495,0 -85.64289,-0.40767 z M 630.45734,664.8087 c 83.97898,-48.31979 153.04544,-88.17583 153.48109,-88.56892 0.43556,-0.39312 -67.17339,-39.84529 -150.24211,-87.67149 -83.06883,-47.8262 -152.46562,-87.79237 -154.21518,-88.81374 l -3.18102,-1.857 v 177.80229 c 0,97.79127 0.33034,177.61346 0.73408,177.38266 0.40375,-0.23079 69.44416,-39.95399 153.42314,-88.2738 z"
     id="path5111"
     inkscape:connector-curvature="0" />
</svg>
